<svg width="1080" height="1080" viewBox="0 0 1080 1080" fill="none" xmlns="http://www.w3.org/2000/svg">
<rect width="1080" height="1080" fill="#1E293B"/>
<g clip-path="url(#clip0_23_2216)">
<path d="M540 190C598.954 190 656.952 204.891 708.614 233.293C760.275 261.694 803.926 302.684 835.515 352.461L687.757 446.23C671.963 421.342 650.138 400.847 624.307 386.646C598.476 372.446 569.477 365 540 365L540 190Z" fill="#3E59F0"/>
<path d="M835.486 352.415C863.098 395.911 880.768 444.966 887.233 496.079L713.617 518.04C710.384 492.483 701.549 467.955 687.743 446.207L835.486 352.415Z" fill="#A5CAF3"/>
<path d="M887.243 496.152C897.446 576.957 879.149 658.791 835.504 727.556C791.86 796.321 725.599 847.712 648.138 872.876L594.069 706.438C632.8 693.856 665.93 668.16 687.752 633.778C709.575 599.395 718.723 558.479 713.621 518.076L887.243 496.152Z" fill="#2C66B1"/>
<path d="M648.141 872.875C595.61 889.94 539.786 894.331 485.233 885.688C430.679 877.046 378.946 855.614 334.263 823.147C289.579 790.679 253.214 748.097 228.141 698.883C203.067 649.668 189.998 595.218 190 539.984L365 539.992C364.999 567.609 371.534 594.834 384.07 619.441C396.607 644.049 414.79 665.34 437.131 681.573C459.473 697.807 485.34 708.523 512.616 712.844C539.893 717.166 567.805 714.97 594.071 706.437L648.141 872.875Z" fill="#395783"/>
<path d="M190 540C190 447.174 226.875 358.15 292.513 292.513C358.15 226.875 447.174 190 540 190L540 365C493.587 365 449.075 383.437 416.256 416.256C383.437 449.075 365 493.587 365 540L190 540Z" fill="#62A9F8"/>
</g>
<path d="M339.422 761.437C337.089 761.437 335.01 761.036 333.188 760.234C331.375 759.422 329.943 758.307 328.891 756.891C327.849 755.464 327.313 753.818 327.281 751.953H334.094C334.135 752.734 334.391 753.422 334.859 754.016C335.339 754.599 335.974 755.052 336.766 755.375C337.557 755.698 338.448 755.859 339.438 755.859C340.469 755.859 341.38 755.677 342.172 755.312C342.964 754.948 343.583 754.443 344.031 753.797C344.479 753.151 344.703 752.406 344.703 751.562C344.703 750.708 344.464 749.953 343.984 749.297C343.516 748.63 342.839 748.109 341.953 747.734C341.078 747.359 340.036 747.172 338.828 747.172H335.844V742.203H338.828C339.849 742.203 340.75 742.026 341.531 741.672C342.323 741.318 342.938 740.828 343.375 740.203C343.813 739.568 344.031 738.828 344.031 737.984C344.031 737.182 343.839 736.479 343.453 735.875C343.078 735.26 342.547 734.781 341.859 734.437C341.182 734.094 340.391 733.922 339.484 733.922C338.568 733.922 337.729 734.089 336.969 734.422C336.208 734.745 335.599 735.208 335.141 735.812C334.682 736.417 334.438 737.125 334.406 737.937H327.922C327.953 736.094 328.479 734.469 329.5 733.062C330.521 731.656 331.896 730.557 333.625 729.766C335.365 728.964 337.328 728.562 339.516 728.562C341.724 728.562 343.656 728.964 345.313 729.766C346.969 730.568 348.255 731.651 349.172 733.016C350.099 734.37 350.557 735.891 350.547 737.578C350.557 739.37 350 740.865 348.875 742.062C347.76 743.26 346.307 744.021 344.516 744.344V744.594C346.87 744.896 348.661 745.714 349.891 747.047C351.13 748.37 351.745 750.026 351.734 752.016C351.745 753.839 351.219 755.458 350.156 756.875C349.104 758.292 347.651 759.406 345.797 760.219C343.943 761.031 341.818 761.437 339.422 761.437ZM369.145 761.703C366.457 761.693 364.145 761.031 362.207 759.719C360.28 758.406 358.796 756.505 357.754 754.016C356.723 751.526 356.212 748.531 356.223 745.031C356.223 741.542 356.738 738.568 357.77 736.109C358.811 733.651 360.296 731.781 362.223 730.5C364.16 729.208 366.467 728.562 369.145 728.562C371.822 728.562 374.124 729.208 376.051 730.5C377.988 731.792 379.478 733.667 380.52 736.125C381.561 738.573 382.077 741.542 382.066 745.031C382.066 748.542 381.546 751.542 380.504 754.031C379.473 756.521 377.993 758.422 376.066 759.734C374.139 761.047 371.832 761.703 369.145 761.703ZM369.145 756.094C370.978 756.094 372.441 755.172 373.535 753.328C374.629 751.484 375.171 748.719 375.16 745.031C375.16 742.604 374.91 740.583 374.41 738.969C373.921 737.354 373.223 736.141 372.316 735.328C371.421 734.516 370.363 734.109 369.145 734.109C367.322 734.109 365.863 735.021 364.77 736.844C363.676 738.667 363.124 741.396 363.113 745.031C363.113 747.49 363.358 749.542 363.848 751.187C364.348 752.823 365.051 754.052 365.957 754.875C366.863 755.687 367.926 756.094 369.145 756.094ZM404.406 755V753.312C404.406 752.031 404.677 750.854 405.219 749.781C405.771 748.698 406.568 747.833 407.609 747.187C408.661 746.531 409.943 746.203 411.453 746.203C412.984 746.203 414.271 746.526 415.312 747.172C416.365 747.818 417.156 748.682 417.688 749.766C418.229 750.839 418.5 752.021 418.5 753.312V755C418.5 756.281 418.229 757.464 417.688 758.547C417.146 759.62 416.349 760.479 415.297 761.125C414.245 761.781 412.964 762.109 411.453 762.109C409.922 762.109 408.635 761.781 407.594 761.125C406.552 760.479 405.76 759.62 405.219 758.547C404.677 757.464 404.406 756.281 404.406 755ZM408.953 753.312V755C408.953 755.74 409.13 756.437 409.484 757.094C409.849 757.75 410.505 758.078 411.453 758.078C412.401 758.078 413.047 757.755 413.391 757.109C413.745 756.464 413.922 755.76 413.922 755V753.312C413.922 752.552 413.755 751.844 413.422 751.187C413.089 750.531 412.432 750.203 411.453 750.203C410.516 750.203 409.865 750.531 409.5 751.187C409.135 751.844 408.953 752.552 408.953 753.312ZM387.984 736.688V735C387.984 733.708 388.26 732.526 388.813 731.453C389.365 730.37 390.161 729.505 391.203 728.859C392.255 728.214 393.526 727.891 395.016 727.891C396.557 727.891 397.849 728.214 398.891 728.859C399.932 729.505 400.724 730.37 401.266 731.453C401.807 732.526 402.078 733.708 402.078 735V736.688C402.078 737.979 401.802 739.161 401.25 740.234C400.708 741.307 399.911 742.167 398.859 742.812C397.818 743.448 396.536 743.766 395.016 743.766C393.495 743.766 392.208 743.443 391.156 742.797C390.115 742.141 389.323 741.281 388.781 740.219C388.25 739.146 387.984 737.969 387.984 736.688ZM392.563 735V736.688C392.563 737.448 392.74 738.151 393.094 738.797C393.458 739.443 394.099 739.766 395.016 739.766C395.974 739.766 396.625 739.443 396.969 738.797C397.323 738.151 397.5 737.448 397.5 736.688V735C397.5 734.24 397.333 733.531 397 732.875C396.667 732.219 396.005 731.891 395.016 731.891C394.089 731.891 393.448 732.224 393.094 732.891C392.74 733.557 392.563 734.26 392.563 735ZM390.047 761L412.047 729H416.141L394.141 761H390.047Z" fill="#F2F2F2"/>
<path d="M124.101 939.942H117.195C116.998 938.809 116.634 937.806 116.105 936.932C115.576 936.045 114.917 935.295 114.129 934.679C113.341 934.063 112.443 933.602 111.433 933.294C110.436 932.974 109.359 932.814 108.202 932.814C106.146 932.814 104.324 933.331 102.736 934.365C101.148 935.387 99.9044 936.889 99.0057 938.871C98.107 940.84 97.6577 943.247 97.6577 946.091C97.6577 948.984 98.107 951.421 99.0057 953.403C99.9167 955.373 101.16 956.863 102.736 957.872C104.324 958.869 106.14 959.368 108.183 959.368C109.316 959.368 110.375 959.22 111.359 958.925C112.357 958.617 113.249 958.168 114.037 957.577C114.837 956.986 115.508 956.259 116.05 955.398C116.604 954.536 116.985 953.551 117.195 952.443L124.101 952.48C123.842 954.277 123.282 955.964 122.42 957.54C121.571 959.116 120.457 960.507 119.078 961.713C117.699 962.907 116.087 963.843 114.24 964.52C112.393 965.185 110.344 965.517 108.091 965.517C104.767 965.517 101.8 964.748 99.1903 963.209C96.5805 961.67 94.5246 959.448 93.0227 956.543C91.5208 953.637 90.7699 950.153 90.7699 946.091C90.7699 942.016 91.527 938.532 93.0412 935.639C94.5554 932.734 96.6174 930.512 99.2273 928.973C101.837 927.434 104.792 926.665 108.091 926.665C110.196 926.665 112.153 926.96 113.963 927.551C115.773 928.142 117.385 929.01 118.801 930.155C120.217 931.287 121.38 932.679 122.291 934.328C123.214 935.965 123.818 937.837 124.101 939.942ZM136.764 948.381V965H130.079V927.182H136.616V941.456H136.949C137.613 939.856 138.641 938.594 140.032 937.67C141.436 936.735 143.221 936.267 145.387 936.267C147.357 936.267 149.074 936.679 150.539 937.504C152.004 938.329 153.137 939.536 153.937 941.124C154.75 942.712 155.156 944.651 155.156 946.94V965H148.471V947.974C148.471 946.066 147.979 944.583 146.994 943.524C146.021 942.453 144.655 941.918 142.895 941.918C141.713 941.918 140.654 942.176 139.718 942.693C138.795 943.198 138.069 943.93 137.539 944.891C137.022 945.851 136.764 947.014 136.764 948.381ZM161.97 965V936.636H168.451V941.364H168.747C169.264 939.726 170.15 938.464 171.406 937.578C172.674 936.679 174.12 936.23 175.745 936.23C176.115 936.23 176.527 936.249 176.983 936.286C177.45 936.31 177.838 936.353 178.146 936.415V942.564C177.863 942.465 177.413 942.379 176.798 942.305C176.195 942.219 175.61 942.176 175.044 942.176C173.825 942.176 172.729 942.441 171.757 942.97C170.797 943.487 170.039 944.207 169.485 945.131C168.931 946.054 168.654 947.119 168.654 948.325V965H161.97ZM193.791 965.554C191.021 965.554 188.621 964.945 186.589 963.726C184.558 962.507 182.982 960.802 181.862 958.611C180.754 956.42 180.2 953.859 180.2 950.929C180.2 947.999 180.754 945.432 181.862 943.229C182.982 941.025 184.558 939.314 186.589 938.095C188.621 936.876 191.021 936.267 193.791 936.267C196.561 936.267 198.962 936.876 200.993 938.095C203.024 939.314 204.594 941.025 205.702 943.229C206.822 945.432 207.382 947.999 207.382 950.929C207.382 953.859 206.822 956.42 205.702 958.611C204.594 960.802 203.024 962.507 200.993 963.726C198.962 964.945 196.561 965.554 193.791 965.554ZM193.828 960.199C195.33 960.199 196.586 959.786 197.595 958.962C198.605 958.125 199.356 957.004 199.848 955.601C200.353 954.197 200.605 952.634 200.605 950.911C200.605 949.175 200.353 947.605 199.848 946.202C199.356 944.786 198.605 943.66 197.595 942.822C196.586 941.985 195.33 941.567 193.828 941.567C192.289 941.567 191.009 941.985 189.987 942.822C188.978 943.66 188.221 944.786 187.716 946.202C187.223 947.605 186.977 949.175 186.977 950.911C186.977 952.634 187.223 954.197 187.716 955.601C188.221 957.004 188.978 958.125 189.987 958.962C191.009 959.786 192.289 960.199 193.828 960.199ZM213.056 965V936.636H219.445V941.456H219.777C220.368 939.831 221.347 938.563 222.713 937.652C224.08 936.729 225.711 936.267 227.607 936.267C229.527 936.267 231.146 936.735 232.463 937.67C233.793 938.594 234.729 939.856 235.27 941.456H235.566C236.194 939.88 237.252 938.625 238.742 937.689C240.244 936.741 242.023 936.267 244.078 936.267C246.688 936.267 248.818 937.092 250.468 938.741C252.117 940.391 252.942 942.798 252.942 945.962V965H246.239V946.996C246.239 945.235 245.771 943.949 244.836 943.136C243.9 942.312 242.755 941.899 241.401 941.899C239.788 941.899 238.526 942.404 237.615 943.413C236.717 944.411 236.267 945.709 236.267 947.31V965H229.712V946.719C229.712 945.254 229.269 944.084 228.382 943.21C227.508 942.336 226.364 941.899 224.948 941.899C223.988 941.899 223.114 942.145 222.326 942.638C221.538 943.118 220.91 943.801 220.442 944.688C219.974 945.562 219.74 946.583 219.74 947.753V965H213.056ZM272.281 965.554C269.437 965.554 266.981 964.963 264.913 963.781C262.857 962.587 261.275 960.901 260.167 958.722C259.059 956.53 258.505 953.951 258.505 950.984C258.505 948.067 259.059 945.506 260.167 943.303C261.287 941.087 262.851 939.363 264.857 938.132C266.864 936.889 269.221 936.267 271.93 936.267C273.678 936.267 275.327 936.55 276.879 937.116C278.442 937.67 279.821 938.532 281.015 939.702C282.221 940.871 283.169 942.361 283.859 944.17C284.548 945.968 284.893 948.11 284.893 950.597V952.646H261.644V948.141H278.485C278.473 946.86 278.196 945.722 277.654 944.724C277.112 943.715 276.355 942.921 275.383 942.342C274.423 941.764 273.302 941.474 272.022 941.474C270.656 941.474 269.455 941.807 268.421 942.472C267.387 943.124 266.581 943.986 266.002 945.057C265.436 946.116 265.147 947.279 265.134 948.547V952.48C265.134 954.13 265.436 955.545 266.039 956.727C266.642 957.897 267.486 958.795 268.569 959.423C269.652 960.039 270.92 960.347 272.373 960.347C273.345 960.347 274.226 960.211 275.013 959.94C275.801 959.657 276.485 959.245 277.063 958.703C277.642 958.161 278.079 957.491 278.374 956.69L284.616 957.392C284.222 959.042 283.471 960.482 282.363 961.713C281.267 962.932 279.864 963.88 278.153 964.557C276.442 965.222 274.484 965.554 272.281 965.554Z" fill="#F2F2F2"/>
<path d="M373.5 782.5L272.672 883.328C271.921 884.079 270.904 884.5 269.843 884.5H198" stroke="#F0F0F0" stroke-width="3" stroke-linecap="round" stroke-linejoin="round" stroke-dasharray="8 8"/>
<circle cx="189" cy="885" r="10" fill="#61C553"/>
<path d="M301.594 402V397.125L312.984 386.578C313.953 385.641 314.766 384.797 315.422 384.047C316.089 383.297 316.594 382.562 316.938 381.844C317.281 381.115 317.453 380.328 317.453 379.484C317.453 378.547 317.24 377.74 316.813 377.062C316.385 376.375 315.802 375.849 315.063 375.484C314.323 375.109 313.484 374.922 312.547 374.922C311.568 374.922 310.714 375.12 309.984 375.516C309.255 375.911 308.693 376.479 308.297 377.219C307.901 377.958 307.703 378.839 307.703 379.859H301.281C301.281 377.766 301.755 375.948 302.703 374.406C303.651 372.865 304.979 371.672 306.688 370.828C308.396 369.984 310.365 369.562 312.594 369.562C314.885 369.562 316.88 369.969 318.578 370.781C320.286 371.583 321.615 372.698 322.563 374.125C323.51 375.552 323.984 377.187 323.984 379.031C323.984 380.24 323.745 381.432 323.266 382.609C322.797 383.786 321.958 385.094 320.75 386.531C319.542 387.958 317.839 389.672 315.641 391.672L310.969 396.25V396.469H324.406V402H301.594ZM340.996 402.437C338.788 402.437 336.819 402.031 335.09 401.219C333.371 400.406 332.007 399.286 330.996 397.859C329.986 396.432 329.46 394.797 329.418 392.953H335.98C336.053 394.193 336.574 395.198 337.543 395.969C338.512 396.74 339.663 397.125 340.996 397.125C342.059 397.125 342.996 396.891 343.809 396.422C344.632 395.943 345.272 395.281 345.73 394.438C346.199 393.583 346.434 392.604 346.434 391.5C346.434 390.375 346.194 389.385 345.715 388.531C345.246 387.677 344.595 387.01 343.762 386.531C342.928 386.052 341.975 385.807 340.902 385.797C339.965 385.797 339.053 385.99 338.168 386.375C337.293 386.76 336.611 387.286 336.121 387.953L330.105 386.875L331.621 370H351.184V375.531H337.199L336.371 383.547H336.559C337.121 382.755 337.97 382.099 339.105 381.578C340.241 381.057 341.512 380.797 342.918 380.797C344.845 380.797 346.564 381.25 348.074 382.156C349.585 383.062 350.777 384.307 351.652 385.891C352.527 387.464 352.96 389.276 352.949 391.328C352.96 393.484 352.46 395.401 351.449 397.078C350.449 398.745 349.048 400.057 347.246 401.016C345.454 401.964 343.371 402.437 340.996 402.437ZM375.184 396V394.312C375.184 393.031 375.454 391.854 375.996 390.781C376.548 389.698 377.345 388.833 378.387 388.187C379.439 387.531 380.72 387.203 382.23 387.203C383.762 387.203 385.048 387.526 386.09 388.172C387.142 388.818 387.934 389.682 388.465 390.766C389.007 391.839 389.277 393.021 389.277 394.312V396C389.277 397.281 389.007 398.464 388.465 399.547C387.923 400.62 387.126 401.479 386.074 402.125C385.022 402.781 383.741 403.109 382.23 403.109C380.699 403.109 379.413 402.781 378.371 402.125C377.329 401.479 376.538 400.62 375.996 399.547C375.454 398.464 375.184 397.281 375.184 396ZM379.73 394.312V396C379.73 396.74 379.908 397.437 380.262 398.094C380.626 398.75 381.283 399.078 382.23 399.078C383.178 399.078 383.824 398.755 384.168 398.109C384.522 397.464 384.699 396.76 384.699 396V394.312C384.699 393.552 384.533 392.844 384.199 392.187C383.866 391.531 383.21 391.203 382.23 391.203C381.293 391.203 380.642 391.531 380.277 392.187C379.913 392.844 379.73 393.552 379.73 394.312ZM358.762 377.688V376C358.762 374.708 359.038 373.526 359.59 372.453C360.142 371.37 360.939 370.505 361.98 369.859C363.033 369.214 364.303 368.891 365.793 368.891C367.335 368.891 368.626 369.214 369.668 369.859C370.71 370.505 371.501 371.37 372.043 372.453C372.585 373.526 372.855 374.708 372.855 376V377.688C372.855 378.979 372.579 380.161 372.027 381.234C371.486 382.307 370.689 383.167 369.637 383.812C368.595 384.448 367.314 384.766 365.793 384.766C364.272 384.766 362.986 384.443 361.934 383.797C360.892 383.141 360.1 382.281 359.559 381.219C359.027 380.146 358.762 378.969 358.762 377.688ZM363.34 376V377.688C363.34 378.448 363.517 379.151 363.871 379.797C364.236 380.443 364.876 380.766 365.793 380.766C366.751 380.766 367.402 380.443 367.746 379.797C368.1 379.151 368.277 378.448 368.277 377.688V376C368.277 375.24 368.111 374.531 367.777 373.875C367.444 373.219 366.783 372.891 365.793 372.891C364.866 372.891 364.225 373.224 363.871 373.891C363.517 374.557 363.34 375.26 363.34 376ZM360.824 402L382.824 370H386.918L364.918 402H360.824Z" fill="#F2F2F2"/>
<path d="M95.7301 180V142.182H120.327V147.925H102.581V158.192H119.053V163.935H102.581V174.257H120.474V180H95.7301ZM137.546 180.499C135.318 180.499 133.324 179.926 131.563 178.781C129.803 177.636 128.412 175.974 127.39 173.795C126.368 171.616 125.857 168.97 125.857 165.855C125.857 162.704 126.374 160.045 127.408 157.878C128.455 155.699 129.864 154.055 131.637 152.947C133.41 151.827 135.386 151.267 137.565 151.267C139.227 151.267 140.593 151.55 141.664 152.116C142.735 152.67 143.585 153.341 144.212 154.129C144.84 154.905 145.326 155.637 145.671 156.327H145.948V142.182H152.651V180H146.077V175.531H145.671C145.326 176.221 144.828 176.953 144.175 177.729C143.523 178.492 142.661 179.144 141.59 179.686C140.519 180.228 139.171 180.499 137.546 180.499ZM139.411 175.014C140.827 175.014 142.033 174.633 143.031 173.869C144.028 173.094 144.785 172.017 145.302 170.638C145.819 169.259 146.077 167.652 146.077 165.818C146.077 163.984 145.819 162.39 145.302 161.036C144.797 159.681 144.046 158.629 143.049 157.878C142.064 157.127 140.852 156.751 139.411 156.751C137.922 156.751 136.678 157.139 135.681 157.915C134.684 158.69 133.933 159.761 133.428 161.128C132.924 162.494 132.671 164.058 132.671 165.818C132.671 167.591 132.924 169.173 133.428 170.564C133.945 171.943 134.702 173.032 135.7 173.832C136.709 174.62 137.946 175.014 139.411 175.014ZM172.11 191.227C169.709 191.227 167.647 190.901 165.924 190.249C164.2 189.608 162.815 188.747 161.769 187.663C160.722 186.58 159.996 185.38 159.59 184.062L165.61 182.604C165.881 183.158 166.275 183.705 166.792 184.247C167.309 184.801 168.004 185.257 168.878 185.614C169.765 185.983 170.879 186.168 172.221 186.168C174.116 186.168 175.686 185.706 176.929 184.783C178.173 183.872 178.794 182.37 178.794 180.277V174.903H178.462C178.117 175.593 177.613 176.301 176.948 177.027C176.295 177.753 175.427 178.363 174.344 178.855C173.273 179.348 171.925 179.594 170.3 179.594C168.121 179.594 166.145 179.083 164.373 178.061C162.612 177.027 161.209 175.488 160.162 173.445C159.128 171.389 158.611 168.816 158.611 165.726C158.611 162.611 159.128 159.983 160.162 157.841C161.209 155.687 162.618 154.055 164.391 152.947C166.164 151.827 168.14 151.267 170.319 151.267C171.98 151.267 173.347 151.55 174.418 152.116C175.501 152.67 176.363 153.341 177.003 154.129C177.643 154.905 178.13 155.637 178.462 156.327H178.831V151.636H185.424V180.462C185.424 182.887 184.845 184.893 183.688 186.482C182.531 188.07 180.949 189.258 178.942 190.045C176.935 190.833 174.658 191.227 172.11 191.227ZM172.165 174.349C173.581 174.349 174.787 174.005 175.784 173.315C176.782 172.626 177.539 171.635 178.056 170.342C178.573 169.05 178.831 167.499 178.831 165.689C178.831 163.904 178.573 162.34 178.056 160.999C177.551 159.657 176.8 158.616 175.803 157.878C174.818 157.127 173.605 156.751 172.165 156.751C170.676 156.751 169.432 157.139 168.435 157.915C167.438 158.69 166.687 159.755 166.182 161.109C165.677 162.451 165.425 163.978 165.425 165.689C165.425 167.425 165.677 168.945 166.182 170.25C166.699 171.543 167.456 172.552 168.453 173.278C169.463 173.992 170.7 174.349 172.165 174.349ZM204.831 180.554C201.988 180.554 199.532 179.963 197.463 178.781C195.408 177.587 193.826 175.901 192.718 173.722C191.61 171.53 191.056 168.951 191.056 165.984C191.056 163.067 191.61 160.506 192.718 158.303C193.838 156.087 195.401 154.363 197.408 153.132C199.415 151.889 201.772 151.267 204.48 151.267C206.229 151.267 207.878 151.55 209.429 152.116C210.993 152.67 212.372 153.532 213.566 154.702C214.772 155.871 215.72 157.361 216.409 159.17C217.099 160.968 217.444 163.11 217.444 165.597V167.646H194.195V163.141H211.036C211.024 161.86 210.747 160.722 210.205 159.724C209.663 158.715 208.906 157.921 207.934 157.342C206.973 156.764 205.853 156.474 204.573 156.474C203.206 156.474 202.006 156.807 200.972 157.472C199.938 158.124 199.132 158.986 198.553 160.057C197.987 161.116 197.697 162.279 197.685 163.547V167.48C197.685 169.13 197.987 170.545 198.59 171.727C199.193 172.897 200.036 173.795 201.12 174.423C202.203 175.039 203.471 175.347 204.924 175.347C205.896 175.347 206.776 175.211 207.564 174.94C208.352 174.657 209.035 174.245 209.614 173.703C210.193 173.161 210.63 172.491 210.925 171.69L217.167 172.392C216.773 174.042 216.022 175.482 214.914 176.713C213.818 177.932 212.415 178.88 210.703 179.557C208.992 180.222 207.035 180.554 204.831 180.554Z" fill="#F2F2F2"/>
<path d="M346 346L224.172 224.172C223.421 223.421 222.404 223 221.343 223H166" stroke="#F0F0F0" stroke-width="3" stroke-linecap="round" stroke-linejoin="round" stroke-dasharray="8 8"/>
<circle cx="157" cy="223" r="10" fill="#3474BA"/>
<path d="M622.516 312V344H615.75V318.422H615.563L608.234 323.016V317.016L616.156 312H622.516ZM642.402 344.437C640.757 344.427 639.168 344.151 637.637 343.609C636.116 343.068 634.751 342.187 633.543 340.969C632.335 339.75 631.376 338.135 630.668 336.125C629.97 334.115 629.621 331.646 629.621 328.719C629.632 326.031 629.939 323.63 630.543 321.516C631.158 319.391 632.033 317.589 633.168 316.109C634.314 314.63 635.684 313.505 637.277 312.734C638.871 311.953 640.658 311.562 642.637 311.562C644.772 311.562 646.658 311.979 648.293 312.813C649.928 313.635 651.241 314.755 652.23 316.172C653.23 317.589 653.835 319.177 654.043 320.937H647.371C647.111 319.823 646.564 318.948 645.73 318.313C644.897 317.677 643.866 317.359 642.637 317.359C640.553 317.359 638.97 318.266 637.887 320.078C636.814 321.891 636.267 324.354 636.246 327.469H636.465C636.944 326.521 637.59 325.714 638.402 325.047C639.225 324.37 640.158 323.854 641.199 323.5C642.251 323.135 643.361 322.953 644.527 322.953C646.423 322.953 648.111 323.401 649.59 324.297C651.069 325.182 652.236 326.401 653.09 327.953C653.944 329.505 654.371 331.281 654.371 333.281C654.371 335.448 653.866 337.375 652.855 339.062C651.855 340.75 650.454 342.073 648.652 343.031C646.861 343.979 644.777 344.448 642.402 344.437ZM642.371 339.125C643.413 339.125 644.345 338.875 645.168 338.375C645.991 337.875 646.637 337.198 647.105 336.344C647.574 335.49 647.809 334.531 647.809 333.469C647.809 332.406 647.574 331.453 647.105 330.609C646.647 329.766 646.012 329.094 645.199 328.594C644.387 328.094 643.46 327.844 642.418 327.844C641.637 327.844 640.913 327.99 640.246 328.281C639.59 328.573 639.012 328.979 638.512 329.5C638.022 330.021 637.637 330.625 637.355 331.312C637.074 331.99 636.934 332.714 636.934 333.484C636.934 334.516 637.168 335.458 637.637 336.312C638.116 337.167 638.762 337.849 639.574 338.359C640.397 338.87 641.329 339.125 642.371 339.125ZM676.684 338V336.312C676.684 335.031 676.954 333.854 677.496 332.781C678.048 331.698 678.845 330.833 679.887 330.187C680.939 329.531 682.22 329.203 683.73 329.203C685.262 329.203 686.548 329.526 687.59 330.172C688.642 330.818 689.434 331.682 689.965 332.766C690.507 333.839 690.777 335.021 690.777 336.312V338C690.777 339.281 690.507 340.464 689.965 341.547C689.423 342.62 688.626 343.479 687.574 344.125C686.522 344.781 685.241 345.109 683.73 345.109C682.199 345.109 680.913 344.781 679.871 344.125C678.829 343.479 678.038 342.62 677.496 341.547C676.954 340.464 676.684 339.281 676.684 338ZM681.23 336.312V338C681.23 338.74 681.408 339.437 681.762 340.094C682.126 340.75 682.783 341.078 683.73 341.078C684.678 341.078 685.324 340.755 685.668 340.109C686.022 339.464 686.199 338.76 686.199 338V336.312C686.199 335.552 686.033 334.844 685.699 334.187C685.366 333.531 684.71 333.203 683.73 333.203C682.793 333.203 682.142 333.531 681.777 334.187C681.413 334.844 681.23 335.552 681.23 336.312ZM660.262 319.688V318C660.262 316.708 660.538 315.526 661.09 314.453C661.642 313.37 662.439 312.505 663.48 311.859C664.533 311.214 665.803 310.891 667.293 310.891C668.835 310.891 670.126 311.214 671.168 311.859C672.21 312.505 673.001 313.37 673.543 314.453C674.085 315.526 674.355 316.708 674.355 318V319.688C674.355 320.979 674.079 322.161 673.527 323.234C672.986 324.307 672.189 325.167 671.137 325.812C670.095 326.448 668.814 326.766 667.293 326.766C665.772 326.766 664.486 326.443 663.434 325.797C662.392 325.141 661.6 324.281 661.059 323.219C660.527 322.146 660.262 320.969 660.262 319.688ZM664.84 318V319.688C664.84 320.448 665.017 321.151 665.371 321.797C665.736 322.443 666.376 322.766 667.293 322.766C668.251 322.766 668.902 322.443 669.246 321.797C669.6 321.151 669.777 320.448 669.777 319.688V318C669.777 317.24 669.611 316.531 669.277 315.875C668.944 315.219 668.283 314.891 667.293 314.891C666.366 314.891 665.725 315.224 665.371 315.891C665.017 316.557 664.84 317.26 664.84 318ZM662.324 344L684.324 312H688.418L666.418 344H662.324Z" fill="#F2F2F2"/>
<path d="M793.523 111.091C793.523 115.166 792.759 118.656 791.233 121.561C789.719 124.454 787.651 126.67 785.028 128.209C782.419 129.748 779.458 130.517 776.146 130.517C772.835 130.517 769.868 129.748 767.246 128.209C764.636 126.658 762.568 124.436 761.041 121.543C759.527 118.637 758.77 115.153 758.77 111.091C758.77 107.016 759.527 103.532 761.041 100.639C762.568 97.7339 764.636 95.5118 767.246 93.973C769.868 92.4342 772.835 91.6648 776.146 91.6648C779.458 91.6648 782.419 92.4342 785.028 93.973C787.651 95.5118 789.719 97.7339 791.233 100.639C792.759 103.532 793.523 107.016 793.523 111.091ZM786.635 111.091C786.635 108.223 786.186 105.804 785.287 103.834C784.401 101.852 783.17 100.356 781.594 99.3466C780.018 98.3248 778.202 97.8139 776.146 97.8139C774.09 97.8139 772.275 98.3248 770.699 99.3466C769.123 100.356 767.886 101.852 766.987 103.834C766.101 105.804 765.658 108.223 765.658 111.091C765.658 113.959 766.101 116.384 766.987 118.366C767.886 120.336 769.123 121.832 770.699 122.854C772.275 123.863 774.09 124.368 776.146 124.368C778.202 124.368 780.018 123.863 781.594 122.854C783.17 121.832 784.401 120.336 785.287 118.366C786.186 116.384 786.635 113.959 786.635 111.091ZM799.704 140.636V101.636H806.278V106.327H806.666C807.011 105.637 807.497 104.905 808.125 104.129C808.752 103.341 809.602 102.67 810.673 102.116C811.744 101.55 813.11 101.267 814.772 101.267C816.964 101.267 818.94 101.827 820.7 102.947C822.473 104.055 823.876 105.699 824.91 107.878C825.957 110.045 826.48 112.704 826.48 115.855C826.48 118.97 825.969 121.616 824.947 123.795C823.925 125.974 822.534 127.636 820.774 128.781C819.013 129.926 817.019 130.499 814.791 130.499C813.166 130.499 811.818 130.228 810.747 129.686C809.676 129.144 808.814 128.492 808.162 127.729C807.521 126.953 807.023 126.221 806.666 125.531H806.389V140.636H799.704ZM806.26 115.818C806.26 117.652 806.518 119.259 807.035 120.638C807.565 122.017 808.322 123.094 809.306 123.869C810.304 124.633 811.51 125.014 812.926 125.014C814.403 125.014 815.64 124.62 816.637 123.832C817.635 123.032 818.386 121.943 818.89 120.564C819.407 119.173 819.666 117.591 819.666 115.818C819.666 114.058 819.413 112.494 818.909 111.128C818.404 109.761 817.653 108.69 816.656 107.915C815.659 107.139 814.415 106.751 812.926 106.751C811.498 106.751 810.285 107.127 809.288 107.878C808.291 108.629 807.534 109.681 807.017 111.036C806.512 112.39 806.26 113.984 806.26 115.818ZM844.761 130.554C841.917 130.554 839.461 129.963 837.393 128.781C835.337 127.587 833.755 125.901 832.647 123.722C831.539 121.53 830.985 118.951 830.985 115.984C830.985 113.067 831.539 110.506 832.647 108.303C833.768 106.087 835.331 104.363 837.338 103.132C839.344 101.889 841.702 101.267 844.41 101.267C846.158 101.267 847.808 101.55 849.359 102.116C850.922 102.67 852.301 103.532 853.495 104.702C854.702 105.871 855.65 107.361 856.339 109.17C857.029 110.968 857.373 113.11 857.373 115.597V117.646H834.125V113.141H850.966C850.953 111.86 850.676 110.722 850.135 109.724C849.593 108.715 848.836 107.921 847.863 107.342C846.903 106.764 845.783 106.474 844.502 106.474C843.136 106.474 841.936 106.807 840.902 107.472C839.868 108.124 839.061 108.986 838.483 110.057C837.916 111.116 837.627 112.279 837.615 113.547V117.48C837.615 119.13 837.916 120.545 838.52 121.727C839.123 122.897 839.966 123.795 841.049 124.423C842.133 125.039 843.401 125.347 844.853 125.347C845.826 125.347 846.706 125.211 847.494 124.94C848.282 124.657 848.965 124.245 849.544 123.703C850.122 123.161 850.559 122.491 850.855 121.69L857.096 122.392C856.702 124.042 855.951 125.482 854.843 126.713C853.748 127.932 852.344 128.88 850.633 129.557C848.922 130.222 846.965 130.554 844.761 130.554ZM863.028 130V101.636H869.51V106.364H869.805C870.322 104.726 871.209 103.464 872.464 102.578C873.732 101.679 875.179 101.23 876.804 101.23C877.173 101.23 877.586 101.249 878.041 101.286C878.509 101.31 878.897 101.353 879.205 101.415V107.564C878.921 107.465 878.472 107.379 877.857 107.305C877.253 107.219 876.669 107.176 876.102 107.176C874.884 107.176 873.788 107.441 872.815 107.97C871.855 108.487 871.098 109.207 870.544 110.131C869.99 111.054 869.713 112.119 869.713 113.325V130H863.028ZM891.3 130.572C889.502 130.572 887.884 130.252 886.443 129.612C885.015 128.96 883.883 128 883.045 126.732C882.221 125.464 881.808 123.9 881.808 122.041C881.808 120.441 882.104 119.117 882.695 118.071C883.286 117.025 884.092 116.188 885.114 115.56C886.135 114.932 887.286 114.458 888.567 114.138C889.859 113.805 891.195 113.565 892.574 113.418C894.236 113.245 895.584 113.091 896.618 112.956C897.652 112.808 898.403 112.587 898.871 112.291C899.351 111.983 899.591 111.509 899.591 110.869V110.759C899.591 109.367 899.179 108.29 898.354 107.527C897.529 106.764 896.341 106.382 894.79 106.382C893.152 106.382 891.854 106.739 890.893 107.453C889.946 108.167 889.305 109.01 888.973 109.983L882.732 109.097C883.224 107.373 884.036 105.933 885.169 104.776C886.302 103.606 887.687 102.732 889.324 102.153C890.961 101.562 892.771 101.267 894.753 101.267C896.119 101.267 897.48 101.427 898.834 101.747C900.188 102.067 901.425 102.597 902.545 103.335C903.666 104.062 904.564 105.053 905.241 106.308C905.931 107.564 906.276 109.134 906.276 111.017V130H899.849V126.104H899.628C899.222 126.892 898.649 127.63 897.911 128.32C897.184 128.997 896.267 129.545 895.159 129.963C894.063 130.369 892.777 130.572 891.3 130.572ZM893.036 125.661C894.377 125.661 895.541 125.396 896.526 124.866C897.51 124.325 898.268 123.611 898.797 122.724C899.339 121.838 899.609 120.872 899.609 119.825V116.483C899.4 116.655 899.043 116.815 898.538 116.963C898.046 117.111 897.492 117.24 896.876 117.351C896.261 117.462 895.652 117.56 895.048 117.646C894.445 117.732 893.922 117.806 893.479 117.868C892.482 118.003 891.589 118.225 890.801 118.533C890.013 118.84 889.392 119.271 888.936 119.825C888.481 120.367 888.253 121.069 888.253 121.93C888.253 123.161 888.702 124.091 889.601 124.719C890.5 125.347 891.644 125.661 893.036 125.661Z" fill="#F2F2F2"/>
<path d="M651 287L764.328 173.672C765.079 172.921 766.096 172.5 767.157 172.5H822.5" stroke="#F0F0F0" stroke-width="3" stroke-linecap="round" stroke-linejoin="round" stroke-dasharray="8 8"/>
<circle cx="832" cy="173" r="10" fill="#E96A5C"/>
<path d="M713.594 705V700.125L724.984 689.578C725.953 688.641 726.766 687.797 727.422 687.047C728.089 686.297 728.594 685.562 728.938 684.844C729.281 684.115 729.453 683.328 729.453 682.484C729.453 681.547 729.24 680.74 728.813 680.062C728.385 679.375 727.802 678.849 727.063 678.484C726.323 678.109 725.484 677.922 724.547 677.922C723.568 677.922 722.714 678.12 721.984 678.516C721.255 678.911 720.693 679.479 720.297 680.219C719.901 680.958 719.703 681.839 719.703 682.859H713.281C713.281 680.766 713.755 678.948 714.703 677.406C715.651 675.865 716.979 674.672 718.688 673.828C720.396 672.984 722.365 672.562 724.594 672.562C726.885 672.562 728.88 672.969 730.578 673.781C732.286 674.583 733.615 675.698 734.563 677.125C735.51 678.552 735.984 680.187 735.984 682.031C735.984 683.24 735.745 684.432 735.266 685.609C734.797 686.786 733.958 688.094 732.75 689.531C731.542 690.958 729.839 692.672 727.641 694.672L722.969 699.25V699.469H736.406V705H713.594ZM741.309 705V700.125L752.699 689.578C753.668 688.641 754.48 687.797 755.137 687.047C755.803 686.297 756.309 685.562 756.652 684.844C756.996 684.115 757.168 683.328 757.168 682.484C757.168 681.547 756.954 680.74 756.527 680.062C756.1 679.375 755.517 678.849 754.777 678.484C754.038 678.109 753.199 677.922 752.262 677.922C751.283 677.922 750.428 678.12 749.699 678.516C748.97 678.911 748.408 679.479 748.012 680.219C747.616 680.958 747.418 681.839 747.418 682.859H740.996C740.996 680.766 741.47 678.948 742.418 677.406C743.366 675.865 744.694 674.672 746.402 673.828C748.111 672.984 750.079 672.562 752.309 672.562C754.6 672.562 756.595 672.969 758.293 673.781C760.001 674.583 761.329 675.698 762.277 677.125C763.225 678.552 763.699 680.187 763.699 682.031C763.699 683.24 763.46 684.432 762.98 685.609C762.512 686.786 761.673 688.094 760.465 689.531C759.257 690.958 757.553 692.672 755.355 694.672L750.684 699.25V699.469H764.121V705H741.309ZM786.539 699V697.312C786.539 696.031 786.81 694.854 787.352 693.781C787.904 692.698 788.701 691.833 789.742 691.187C790.794 690.531 792.076 690.203 793.586 690.203C795.117 690.203 796.404 690.526 797.445 691.172C798.497 691.818 799.289 692.682 799.82 693.766C800.362 694.839 800.633 696.021 800.633 697.312V699C800.633 700.281 800.362 701.464 799.82 702.547C799.279 703.62 798.482 704.479 797.43 705.125C796.378 705.781 795.096 706.109 793.586 706.109C792.055 706.109 790.768 705.781 789.727 705.125C788.685 704.479 787.893 703.62 787.352 702.547C786.81 701.464 786.539 700.281 786.539 699ZM791.086 697.312V699C791.086 699.74 791.263 700.437 791.617 701.094C791.982 701.75 792.638 702.078 793.586 702.078C794.534 702.078 795.18 701.755 795.523 701.109C795.878 700.464 796.055 699.76 796.055 699V697.312C796.055 696.552 795.888 695.844 795.555 695.187C795.221 694.531 794.565 694.203 793.586 694.203C792.648 694.203 791.997 694.531 791.633 695.187C791.268 695.844 791.086 696.552 791.086 697.312ZM770.117 680.688V679C770.117 677.708 770.393 676.526 770.945 675.453C771.497 674.37 772.294 673.505 773.336 672.859C774.388 672.214 775.659 671.891 777.148 671.891C778.69 671.891 779.982 672.214 781.023 672.859C782.065 673.505 782.857 674.37 783.398 675.453C783.94 676.526 784.211 677.708 784.211 679V680.688C784.211 681.979 783.935 683.161 783.383 684.234C782.841 685.307 782.044 686.167 780.992 686.812C779.951 687.448 778.669 687.766 777.148 687.766C775.628 687.766 774.341 687.443 773.289 686.797C772.247 686.141 771.456 685.281 770.914 684.219C770.383 683.146 770.117 681.969 770.117 680.688ZM774.695 679V680.688C774.695 681.448 774.872 682.151 775.227 682.797C775.591 683.443 776.232 683.766 777.148 683.766C778.107 683.766 778.758 683.443 779.102 682.797C779.456 682.151 779.633 681.448 779.633 680.688V679C779.633 678.24 779.466 677.531 779.133 676.875C778.799 676.219 778.138 675.891 777.148 675.891C776.221 675.891 775.581 676.224 775.227 676.891C774.872 677.557 774.695 678.26 774.695 679ZM772.18 705L794.18 673H798.273L776.273 705H772.18Z" fill="#F2F2F2"/>
<path d="M846.73 918V880.182H870.957V885.925H853.581V896.192H869.295V901.935H853.581V918H846.73ZM876.903 918V889.636H883.588V918H876.903ZM880.264 885.611C879.205 885.611 878.295 885.26 877.531 884.558C876.768 883.844 876.386 882.989 876.386 881.991C876.386 880.982 876.768 880.126 877.531 879.425C878.295 878.711 879.205 878.354 880.264 878.354C881.335 878.354 882.246 878.711 882.997 879.425C883.76 880.126 884.142 880.982 884.142 881.991C884.142 882.989 883.76 883.844 882.997 884.558C882.246 885.26 881.335 885.611 880.264 885.611ZM890.462 918V889.636H896.944V894.364H897.239C897.756 892.726 898.642 891.464 899.898 890.578C901.166 889.679 902.613 889.23 904.238 889.23C904.607 889.23 905.019 889.249 905.475 889.286C905.943 889.31 906.33 889.353 906.638 889.415V895.564C906.355 895.465 905.906 895.379 905.29 895.305C904.687 895.219 904.102 895.176 903.536 895.176C902.317 895.176 901.221 895.441 900.249 895.97C899.289 896.487 898.532 897.207 897.978 898.131C897.424 899.054 897.147 900.119 897.147 901.325V918H890.462ZM922.468 918.554C919.624 918.554 917.168 917.963 915.1 916.781C913.044 915.587 911.462 913.901 910.354 911.722C909.246 909.53 908.692 906.951 908.692 903.984C908.692 901.067 909.246 898.506 910.354 896.303C911.475 894.087 913.038 892.363 915.045 891.132C917.051 889.889 919.409 889.267 922.117 889.267C923.865 889.267 925.515 889.55 927.066 890.116C928.629 890.67 930.008 891.532 931.202 892.702C932.409 893.871 933.357 895.361 934.046 897.17C934.736 898.968 935.08 901.11 935.08 903.597V905.646H911.832V901.141H928.673C928.66 899.86 928.383 898.722 927.842 897.724C927.3 896.715 926.543 895.921 925.57 895.342C924.61 894.764 923.49 894.474 922.21 894.474C920.843 894.474 919.643 894.807 918.609 895.472C917.575 896.124 916.768 896.986 916.19 898.057C915.623 899.116 915.334 900.279 915.322 901.547V905.48C915.322 907.13 915.623 908.545 916.227 909.727C916.83 910.897 917.673 911.795 918.756 912.423C919.84 913.039 921.108 913.347 922.56 913.347C923.533 913.347 924.413 913.211 925.201 912.94C925.989 912.657 926.672 912.245 927.251 911.703C927.829 911.161 928.266 910.491 928.562 909.69L934.803 910.392C934.409 912.042 933.658 913.482 932.55 914.713C931.455 915.932 930.051 916.88 928.34 917.557C926.629 918.222 924.672 918.554 922.468 918.554ZM955.102 889.636V894.807H938.335V889.636H955.102ZM942.527 918V886.959C942.527 885.051 942.921 883.463 943.708 882.195C944.509 880.927 945.58 879.979 946.922 879.351C948.263 878.723 949.753 878.409 951.39 878.409C952.547 878.409 953.575 878.501 954.474 878.686C955.373 878.871 956.038 879.037 956.468 879.185L955.139 884.355C954.856 884.269 954.499 884.183 954.068 884.097C953.637 883.998 953.157 883.949 952.627 883.949C951.384 883.949 950.504 884.25 949.987 884.854C949.482 885.445 949.23 886.294 949.23 887.402V918H942.527ZM971.643 918.554C968.873 918.554 966.472 917.945 964.441 916.726C962.41 915.507 960.834 913.802 959.714 911.611C958.606 909.42 958.052 906.859 958.052 903.929C958.052 900.999 958.606 898.432 959.714 896.229C960.834 894.025 962.41 892.314 964.441 891.095C966.472 889.876 968.873 889.267 971.643 889.267C974.413 889.267 976.813 889.876 978.844 891.095C980.876 892.314 982.445 894.025 983.553 896.229C984.674 898.432 985.234 900.999 985.234 903.929C985.234 906.859 984.674 909.42 983.553 911.611C982.445 913.802 980.876 915.507 978.844 916.726C976.813 917.945 974.413 918.554 971.643 918.554ZM971.68 913.199C973.182 913.199 974.437 912.786 975.447 911.962C976.456 911.125 977.207 910.004 977.7 908.601C978.204 907.197 978.457 905.634 978.457 903.911C978.457 902.175 978.204 900.605 977.7 899.202C977.207 897.786 976.456 896.66 975.447 895.822C974.437 894.985 973.182 894.567 971.68 894.567C970.141 894.567 968.861 894.985 967.839 895.822C966.829 896.66 966.072 897.786 965.567 899.202C965.075 900.605 964.829 902.175 964.829 903.911C964.829 905.634 965.075 907.197 965.567 908.601C966.072 910.004 966.829 911.125 967.839 911.962C968.861 912.786 970.141 913.199 971.68 913.199ZM995.307 889.636L1001.03 900.107L1006.85 889.636H1013.92L1005.37 903.818L1014.07 918H1007.03L1001.03 907.788L995.085 918H987.994L996.636 903.818L988.216 889.636H995.307Z" fill="#F2F2F2"/>
<path d="M757.5 725.5L868.328 836.328C869.079 837.079 870.096 837.5 871.157 837.5H920" stroke="#F0F0F0" stroke-width="3" stroke-linecap="round" stroke-linejoin="round" stroke-dasharray="8 8"/>
<circle cx="930" cy="837" r="10" fill="#F3C24F"/>
<path d="M754.859 477L768.125 450.75V450.531H752.672V445H775.125V450.609L761.844 477H754.859ZM797.277 471V469.312C797.277 468.031 797.548 466.854 798.09 465.781C798.642 464.698 799.439 463.833 800.48 463.187C801.533 462.531 802.814 462.203 804.324 462.203C805.855 462.203 807.142 462.526 808.184 463.172C809.236 463.818 810.027 464.682 810.559 465.766C811.1 466.839 811.371 468.021 811.371 469.312V471C811.371 472.281 811.1 473.464 810.559 474.547C810.017 475.62 809.22 476.479 808.168 477.125C807.116 477.781 805.835 478.109 804.324 478.109C802.793 478.109 801.507 477.781 800.465 477.125C799.423 476.479 798.632 475.62 798.09 474.547C797.548 473.464 797.277 472.281 797.277 471ZM801.824 469.312V471C801.824 471.74 802.001 472.437 802.355 473.094C802.72 473.75 803.376 474.078 804.324 474.078C805.272 474.078 805.918 473.755 806.262 473.109C806.616 472.464 806.793 471.76 806.793 471V469.312C806.793 468.552 806.626 467.844 806.293 467.187C805.96 466.531 805.303 466.203 804.324 466.203C803.387 466.203 802.736 466.531 802.371 467.187C802.007 467.844 801.824 468.552 801.824 469.312ZM780.855 452.688V451C780.855 449.708 781.132 448.526 781.684 447.453C782.236 446.37 783.033 445.505 784.074 444.859C785.126 444.214 786.397 443.891 787.887 443.891C789.428 443.891 790.72 444.214 791.762 444.859C792.803 445.505 793.595 446.37 794.137 447.453C794.678 448.526 794.949 449.708 794.949 451V452.688C794.949 453.979 794.673 455.161 794.121 456.234C793.579 457.307 792.783 458.167 791.73 458.812C790.689 459.448 789.408 459.766 787.887 459.766C786.366 459.766 785.079 459.443 784.027 458.797C782.986 458.141 782.194 457.281 781.652 456.219C781.121 455.146 780.855 453.969 780.855 452.688ZM785.434 451V452.688C785.434 453.448 785.611 454.151 785.965 454.797C786.329 455.443 786.97 455.766 787.887 455.766C788.845 455.766 789.496 455.443 789.84 454.797C790.194 454.151 790.371 453.448 790.371 452.688V451C790.371 450.24 790.204 449.531 789.871 448.875C789.538 448.219 788.876 447.891 787.887 447.891C786.96 447.891 786.319 448.224 785.965 448.891C785.611 449.557 785.434 450.26 785.434 451ZM782.918 477L804.918 445H809.012L787.012 477H782.918Z" fill="#F2F2F2"/>
<path d="M975.581 285.182V323H968.73V285.182H975.581ZM983 323V285.182H1007.6V290.925H989.85V301.192H1006.32V306.935H989.85V317.257H1007.74V323H983Z" fill="#F2F2F2"/>
<path d="M791 426L922.42 367.347C922.933 367.118 923.488 367 924.05 367H978" stroke="#F0F0F0" stroke-width="3" stroke-linecap="round" stroke-linejoin="round" stroke-dasharray="8 8"/>
<circle cx="988" cy="367" r="10" fill="#6CE1FB"/>
<defs>
<clipPath id="clip0_23_2216">
<rect width="700" height="700" fill="white" transform="translate(190 190)"/>
</clipPath>
</defs>
</svg>
