<svg width="1080" height="1080" viewBox="0 0 1080 1080" fill="none" xmlns="http://www.w3.org/2000/svg">
<rect width="1080" height="1080" fill="#1E293B"/>
<g filter="url(#filter0_d_23_2396)">
<rect x="70" y="241" width="940" height="598" rx="32" fill="#2A2C33"/>
</g>
<path d="M132.295 325V301.727H141.023C142.811 301.727 144.311 302.061 145.523 302.727C146.742 303.394 147.663 304.311 148.284 305.477C148.913 306.636 149.227 307.955 149.227 309.432C149.227 310.924 148.913 312.25 148.284 313.409C147.655 314.568 146.727 315.481 145.5 316.148C144.273 316.807 142.761 317.136 140.966 317.136H135.182V313.67H140.398C141.443 313.67 142.299 313.489 142.966 313.125C143.633 312.761 144.125 312.261 144.443 311.625C144.769 310.989 144.932 310.258 144.932 309.432C144.932 308.606 144.769 307.879 144.443 307.25C144.125 306.621 143.629 306.133 142.955 305.784C142.288 305.428 141.428 305.25 140.375 305.25H136.511V325H132.295ZM157.418 325.352C156.312 325.352 155.315 325.155 154.429 324.761C153.55 324.36 152.853 323.769 152.338 322.989C151.83 322.208 151.577 321.246 151.577 320.102C151.577 319.117 151.759 318.303 152.122 317.659C152.486 317.015 152.982 316.5 153.611 316.114C154.24 315.727 154.948 315.436 155.736 315.239C156.531 315.034 157.353 314.886 158.202 314.795C159.224 314.689 160.054 314.595 160.69 314.511C161.327 314.42 161.789 314.284 162.077 314.102C162.372 313.913 162.52 313.621 162.52 313.227V313.159C162.52 312.303 162.266 311.64 161.759 311.17C161.251 310.701 160.52 310.466 159.565 310.466C158.558 310.466 157.759 310.686 157.168 311.125C156.584 311.564 156.19 312.083 155.986 312.682L152.145 312.136C152.448 311.076 152.948 310.189 153.645 309.477C154.342 308.758 155.194 308.22 156.202 307.864C157.209 307.5 158.323 307.318 159.543 307.318C160.384 307.318 161.221 307.417 162.054 307.614C162.887 307.811 163.649 308.136 164.338 308.591C165.027 309.038 165.58 309.648 165.997 310.42C166.421 311.193 166.634 312.159 166.634 313.318V325H162.679V322.602H162.543C162.293 323.087 161.94 323.542 161.486 323.966C161.039 324.383 160.474 324.72 159.793 324.977C159.118 325.227 158.327 325.352 157.418 325.352ZM158.486 322.33C159.312 322.33 160.027 322.167 160.634 321.841C161.24 321.508 161.705 321.068 162.031 320.523C162.365 319.977 162.531 319.383 162.531 318.739V316.682C162.402 316.788 162.183 316.886 161.872 316.977C161.569 317.068 161.228 317.148 160.849 317.216C160.471 317.284 160.096 317.345 159.724 317.398C159.353 317.451 159.031 317.496 158.759 317.534C158.145 317.617 157.596 317.754 157.111 317.943C156.626 318.133 156.243 318.398 155.963 318.739C155.683 319.072 155.543 319.504 155.543 320.034C155.543 320.792 155.819 321.364 156.372 321.75C156.925 322.136 157.63 322.33 158.486 322.33ZM178.361 331.909C176.884 331.909 175.615 331.708 174.554 331.307C173.493 330.913 172.641 330.383 171.997 329.716C171.353 329.049 170.906 328.311 170.656 327.5L174.361 326.602C174.527 326.943 174.77 327.28 175.088 327.614C175.406 327.955 175.834 328.235 176.372 328.455C176.918 328.682 177.603 328.795 178.429 328.795C179.596 328.795 180.562 328.511 181.327 327.943C182.092 327.383 182.474 326.458 182.474 325.17V321.864H182.27C182.058 322.288 181.747 322.723 181.338 323.17C180.937 323.617 180.402 323.992 179.736 324.295C179.077 324.598 178.247 324.75 177.247 324.75C175.906 324.75 174.69 324.436 173.599 323.807C172.516 323.17 171.652 322.223 171.009 320.966C170.372 319.701 170.054 318.117 170.054 316.216C170.054 314.299 170.372 312.682 171.009 311.364C171.652 310.038 172.52 309.034 173.611 308.352C174.702 307.663 175.918 307.318 177.259 307.318C178.281 307.318 179.122 307.492 179.781 307.841C180.448 308.182 180.978 308.595 181.372 309.08C181.766 309.557 182.065 310.008 182.27 310.432H182.497V307.545H186.554V325.284C186.554 326.777 186.198 328.011 185.486 328.989C184.774 329.966 183.8 330.697 182.565 331.182C181.33 331.667 179.929 331.909 178.361 331.909ZM178.395 321.523C179.266 321.523 180.009 321.311 180.622 320.886C181.236 320.462 181.702 319.852 182.02 319.057C182.338 318.261 182.497 317.307 182.497 316.193C182.497 315.095 182.338 314.133 182.02 313.307C181.709 312.481 181.247 311.841 180.634 311.386C180.027 310.924 179.281 310.693 178.395 310.693C177.478 310.693 176.713 310.932 176.099 311.409C175.486 311.886 175.024 312.542 174.713 313.375C174.402 314.201 174.247 315.14 174.247 316.193C174.247 317.261 174.402 318.197 174.713 319C175.031 319.795 175.497 320.417 176.111 320.864C176.732 321.303 177.493 321.523 178.395 321.523ZM198.497 325.341C196.747 325.341 195.236 324.977 193.963 324.25C192.698 323.515 191.724 322.477 191.043 321.136C190.361 319.788 190.02 318.201 190.02 316.375C190.02 314.58 190.361 313.004 191.043 311.648C191.732 310.284 192.694 309.223 193.929 308.466C195.164 307.701 196.615 307.318 198.281 307.318C199.357 307.318 200.372 307.492 201.327 307.841C202.289 308.182 203.137 308.712 203.872 309.432C204.615 310.152 205.198 311.068 205.622 312.182C206.046 313.288 206.259 314.606 206.259 316.136V317.398H191.952V314.625H202.315C202.308 313.837 202.137 313.136 201.804 312.523C201.471 311.902 201.005 311.413 200.406 311.057C199.815 310.701 199.126 310.523 198.338 310.523C197.497 310.523 196.759 310.727 196.122 311.136C195.486 311.538 194.99 312.068 194.634 312.727C194.285 313.379 194.107 314.095 194.099 314.875V317.295C194.099 318.311 194.285 319.182 194.656 319.909C195.027 320.629 195.546 321.182 196.213 321.568C196.88 321.947 197.66 322.136 198.554 322.136C199.152 322.136 199.694 322.053 200.179 321.886C200.664 321.712 201.084 321.458 201.44 321.125C201.796 320.792 202.065 320.379 202.247 319.886L206.088 320.318C205.846 321.333 205.384 322.22 204.702 322.977C204.027 323.727 203.164 324.311 202.111 324.727C201.058 325.136 199.853 325.341 198.497 325.341ZM223.534 312.159L219.784 312.568C219.678 312.189 219.492 311.833 219.227 311.5C218.97 311.167 218.621 310.898 218.182 310.693C217.742 310.489 217.205 310.386 216.568 310.386C215.712 310.386 214.992 310.572 214.409 310.943C213.833 311.314 213.549 311.795 213.557 312.386C213.549 312.894 213.735 313.307 214.114 313.625C214.5 313.943 215.136 314.205 216.023 314.409L219 315.045C220.652 315.402 221.879 315.966 222.682 316.739C223.492 317.511 223.902 318.523 223.909 319.773C223.902 320.871 223.58 321.841 222.943 322.682C222.314 323.515 221.439 324.167 220.318 324.636C219.197 325.106 217.909 325.341 216.455 325.341C214.318 325.341 212.598 324.894 211.295 324C209.992 323.098 209.216 321.845 208.966 320.239L212.977 319.852C213.159 320.64 213.545 321.235 214.136 321.636C214.727 322.038 215.496 322.239 216.443 322.239C217.42 322.239 218.205 322.038 218.795 321.636C219.394 321.235 219.693 320.739 219.693 320.148C219.693 319.648 219.5 319.235 219.114 318.909C218.735 318.583 218.144 318.333 217.341 318.159L214.364 317.534C212.689 317.186 211.451 316.598 210.648 315.773C209.845 314.939 209.447 313.886 209.455 312.614C209.447 311.538 209.739 310.606 210.33 309.818C210.928 309.023 211.758 308.409 212.818 307.977C213.886 307.538 215.117 307.318 216.511 307.318C218.557 307.318 220.167 307.754 221.341 308.625C222.523 309.496 223.254 310.674 223.534 312.159Z" fill="#FAFAFA"/>
<path d="M640.409 301.727L646.466 320.045H646.705L652.75 301.727H657.386L649.182 325H643.977L635.784 301.727H640.409ZM660.27 325V307.545H664.384V325H660.27ZM662.338 305.068C661.687 305.068 661.126 304.852 660.656 304.42C660.187 303.981 659.952 303.455 659.952 302.841C659.952 302.22 660.187 301.693 660.656 301.261C661.126 300.822 661.687 300.602 662.338 300.602C662.997 300.602 663.558 300.822 664.02 301.261C664.49 301.693 664.724 302.22 664.724 302.841C664.724 303.455 664.49 303.981 664.02 304.42C663.558 304.852 662.997 305.068 662.338 305.068ZM682.409 312.159L678.659 312.568C678.553 312.189 678.367 311.833 678.102 311.5C677.845 311.167 677.496 310.898 677.057 310.693C676.617 310.489 676.08 310.386 675.443 310.386C674.587 310.386 673.867 310.572 673.284 310.943C672.708 311.314 672.424 311.795 672.432 312.386C672.424 312.894 672.61 313.307 672.989 313.625C673.375 313.943 674.011 314.205 674.898 314.409L677.875 315.045C679.527 315.402 680.754 315.966 681.557 316.739C682.367 317.511 682.777 318.523 682.784 319.773C682.777 320.871 682.455 321.841 681.818 322.682C681.189 323.515 680.314 324.167 679.193 324.636C678.072 325.106 676.784 325.341 675.33 325.341C673.193 325.341 671.473 324.894 670.17 324C668.867 323.098 668.091 321.845 667.841 320.239L671.852 319.852C672.034 320.64 672.42 321.235 673.011 321.636C673.602 322.038 674.371 322.239 675.318 322.239C676.295 322.239 677.08 322.038 677.67 321.636C678.269 321.235 678.568 320.739 678.568 320.148C678.568 319.648 678.375 319.235 677.989 318.909C677.61 318.583 677.019 318.333 676.216 318.159L673.239 317.534C671.564 317.186 670.326 316.598 669.523 315.773C668.72 314.939 668.322 313.886 668.33 312.614C668.322 311.538 668.614 310.606 669.205 309.818C669.803 309.023 670.633 308.409 671.693 307.977C672.761 307.538 673.992 307.318 675.386 307.318C677.432 307.318 679.042 307.754 680.216 308.625C681.398 309.496 682.129 310.674 682.409 312.159ZM686.176 325V307.545H690.29V325H686.176ZM688.244 305.068C687.593 305.068 687.032 304.852 686.562 304.42C686.093 303.981 685.858 303.455 685.858 302.841C685.858 302.22 686.093 301.693 686.562 301.261C687.032 300.822 687.593 300.602 688.244 300.602C688.903 300.602 689.464 300.822 689.926 301.261C690.396 301.693 690.631 302.22 690.631 302.841C690.631 303.455 690.396 303.981 689.926 304.42C689.464 304.852 688.903 305.068 688.244 305.068ZM703.236 307.545V310.727H693.202V307.545H703.236ZM695.679 303.364H699.793V319.75C699.793 320.303 699.876 320.727 700.043 321.023C700.217 321.311 700.444 321.508 700.724 321.614C701.005 321.72 701.315 321.773 701.656 321.773C701.914 321.773 702.149 321.754 702.361 321.716C702.58 321.678 702.747 321.644 702.861 321.614L703.554 324.83C703.334 324.905 703.02 324.989 702.611 325.08C702.209 325.17 701.717 325.223 701.134 325.239C700.103 325.269 699.175 325.114 698.349 324.773C697.524 324.424 696.868 323.886 696.384 323.159C695.906 322.432 695.671 321.523 695.679 320.432V303.364ZM714.102 325.341C712.398 325.341 710.92 324.966 709.67 324.216C708.42 323.466 707.451 322.417 706.761 321.068C706.08 319.72 705.739 318.144 705.739 316.341C705.739 314.538 706.08 312.958 706.761 311.602C707.451 310.246 708.42 309.193 709.67 308.443C710.92 307.693 712.398 307.318 714.102 307.318C715.807 307.318 717.284 307.693 718.534 308.443C719.784 309.193 720.75 310.246 721.432 311.602C722.121 312.958 722.466 314.538 722.466 316.341C722.466 318.144 722.121 319.72 721.432 321.068C720.75 322.417 719.784 323.466 718.534 324.216C717.284 324.966 715.807 325.341 714.102 325.341ZM714.125 322.045C715.049 322.045 715.822 321.792 716.443 321.284C717.064 320.769 717.527 320.08 717.83 319.216C718.14 318.352 718.295 317.39 718.295 316.33C718.295 315.261 718.14 314.295 717.83 313.432C717.527 312.561 717.064 311.867 716.443 311.352C715.822 310.837 715.049 310.58 714.125 310.58C713.178 310.58 712.39 310.837 711.761 311.352C711.14 311.867 710.674 312.561 710.364 313.432C710.061 314.295 709.909 315.261 709.909 316.33C709.909 317.39 710.061 318.352 710.364 319.216C710.674 320.08 711.14 320.769 711.761 321.284C712.39 321.792 713.178 322.045 714.125 322.045ZM725.957 325V307.545H729.946V310.455H730.128C730.446 309.447 730.991 308.67 731.764 308.125C732.545 307.572 733.435 307.295 734.435 307.295C734.662 307.295 734.916 307.307 735.196 307.33C735.484 307.345 735.723 307.371 735.912 307.409V311.193C735.738 311.133 735.461 311.08 735.082 311.034C734.711 310.981 734.351 310.955 734.003 310.955C733.253 310.955 732.579 311.117 731.98 311.443C731.389 311.761 730.923 312.205 730.582 312.773C730.241 313.341 730.071 313.996 730.071 314.739V325H725.957ZM752.44 312.159L748.69 312.568C748.584 312.189 748.399 311.833 748.134 311.5C747.876 311.167 747.527 310.898 747.088 310.693C746.649 310.489 746.111 310.386 745.474 310.386C744.618 310.386 743.899 310.572 743.315 310.943C742.74 311.314 742.455 311.795 742.463 312.386C742.455 312.894 742.641 313.307 743.02 313.625C743.406 313.943 744.043 314.205 744.929 314.409L747.906 315.045C749.558 315.402 750.785 315.966 751.588 316.739C752.399 317.511 752.808 318.523 752.815 319.773C752.808 320.871 752.486 321.841 751.849 322.682C751.221 323.515 750.346 324.167 749.224 324.636C748.103 325.106 746.815 325.341 745.361 325.341C743.224 325.341 741.505 324.894 740.202 324C738.899 323.098 738.122 321.845 737.872 320.239L741.884 319.852C742.065 320.64 742.452 321.235 743.043 321.636C743.634 322.038 744.402 322.239 745.349 322.239C746.327 322.239 747.111 322.038 747.702 321.636C748.3 321.235 748.599 320.739 748.599 320.148C748.599 319.648 748.406 319.235 748.02 318.909C747.641 318.583 747.05 318.333 746.247 318.159L743.27 317.534C741.596 317.186 740.357 316.598 739.554 315.773C738.751 314.939 738.353 313.886 738.361 312.614C738.353 311.538 738.645 310.606 739.236 309.818C739.834 309.023 740.664 308.409 741.724 307.977C742.793 307.538 744.024 307.318 745.418 307.318C747.463 307.318 749.073 307.754 750.247 308.625C751.429 309.496 752.16 310.674 752.44 312.159Z" fill="#FAFAFA"/>
<path d="M860.409 301.727L866.466 320.045H866.705L872.75 301.727H877.386L869.182 325H863.977L855.784 301.727H860.409ZM880.27 325V307.545H884.384V325H880.27ZM882.338 305.068C881.687 305.068 881.126 304.852 880.656 304.42C880.187 303.981 879.952 303.455 879.952 302.841C879.952 302.22 880.187 301.693 880.656 301.261C881.126 300.822 881.687 300.602 882.338 300.602C882.997 300.602 883.558 300.822 884.02 301.261C884.49 301.693 884.724 302.22 884.724 302.841C884.724 303.455 884.49 303.981 884.02 304.42C883.558 304.852 882.997 305.068 882.338 305.068ZM896.341 325.341C894.591 325.341 893.08 324.977 891.807 324.25C890.542 323.515 889.568 322.477 888.886 321.136C888.205 319.788 887.864 318.201 887.864 316.375C887.864 314.58 888.205 313.004 888.886 311.648C889.576 310.284 890.538 309.223 891.773 308.466C893.008 307.701 894.458 307.318 896.125 307.318C897.201 307.318 898.216 307.492 899.17 307.841C900.133 308.182 900.981 308.712 901.716 309.432C902.458 310.152 903.042 311.068 903.466 312.182C903.89 313.288 904.102 314.606 904.102 316.136V317.398H889.795V314.625H900.159C900.152 313.837 899.981 313.136 899.648 312.523C899.314 311.902 898.848 311.413 898.25 311.057C897.659 310.701 896.97 310.523 896.182 310.523C895.341 310.523 894.602 310.727 893.966 311.136C893.33 311.538 892.833 312.068 892.477 312.727C892.129 313.379 891.951 314.095 891.943 314.875V317.295C891.943 318.311 892.129 319.182 892.5 319.909C892.871 320.629 893.39 321.182 894.057 321.568C894.723 321.947 895.504 322.136 896.398 322.136C896.996 322.136 897.538 322.053 898.023 321.886C898.508 321.712 898.928 321.458 899.284 321.125C899.64 320.792 899.909 320.379 900.091 319.886L903.932 320.318C903.689 321.333 903.227 322.22 902.545 322.977C901.871 323.727 901.008 324.311 899.955 324.727C898.902 325.136 897.697 325.341 896.341 325.341ZM911.091 325L906.159 307.545H910.352L913.42 319.818H913.58L916.716 307.545H920.864L924 319.75H924.17L927.193 307.545H931.398L926.455 325H922.17L918.898 313.205H918.659L915.386 325H911.091ZM948.065 312.159L944.315 312.568C944.209 312.189 944.024 311.833 943.759 311.5C943.501 311.167 943.152 310.898 942.713 310.693C942.274 310.489 941.736 310.386 941.099 310.386C940.243 310.386 939.524 310.572 938.94 310.943C938.365 311.314 938.08 311.795 938.088 312.386C938.08 312.894 938.266 313.307 938.645 313.625C939.031 313.943 939.668 314.205 940.554 314.409L943.531 315.045C945.183 315.402 946.41 315.966 947.213 316.739C948.024 317.511 948.433 318.523 948.44 319.773C948.433 320.871 948.111 321.841 947.474 322.682C946.846 323.515 945.971 324.167 944.849 324.636C943.728 325.106 942.44 325.341 940.986 325.341C938.849 325.341 937.13 324.894 935.827 324C934.524 323.098 933.747 321.845 933.497 320.239L937.509 319.852C937.69 320.64 938.077 321.235 938.668 321.636C939.259 322.038 940.027 322.239 940.974 322.239C941.952 322.239 942.736 322.038 943.327 321.636C943.925 321.235 944.224 320.739 944.224 320.148C944.224 319.648 944.031 319.235 943.645 318.909C943.266 318.583 942.675 318.333 941.872 318.159L938.895 317.534C937.221 317.186 935.982 316.598 935.179 315.773C934.376 314.939 933.978 313.886 933.986 312.614C933.978 311.538 934.27 310.606 934.861 309.818C935.459 309.023 936.289 308.409 937.349 307.977C938.418 307.538 939.649 307.318 941.043 307.318C943.088 307.318 944.698 307.754 945.872 308.625C947.054 309.496 947.785 310.674 948.065 312.159Z" fill="#FAFAFA"/>
<path d="M70 389H818C820.209 389 822 390.791 822 393V453C822 455.209 820.209 457 818 457H70V389Z" fill="#3D4B67"/>
<path d="M70 469H753C755.209 469 757 470.791 757 473V533C757 535.209 755.209 537 753 537H70V469Z" fill="#53658A"/>
<path d="M70 549H588C590.209 549 592 550.791 592 553V613C592 615.209 590.209 617 588 617H70V549Z" fill="#6B728C"/>
<path d="M70 629H442C444.209 629 446 630.791 446 633V693C446 695.209 444.209 697 442 697H70V629Z" fill="#3D5380"/>
<path d="M70 709H368C370.209 709 372 710.791 372 713V773C372 775.209 370.209 777 368 777H70V709Z" fill="#606D88"/>
<path d="M118.361 413.727L112.736 434.625H110.46L116.085 413.727H118.361Z" fill="#ECF3FA"/>
<path d="M676.651 414.545V432H673.489V417.622H673.386L669.304 420.23V417.332L673.642 414.545H676.651ZM687.474 432.239C686.639 432.233 685.824 432.088 685.028 431.804C684.233 431.514 683.517 431.045 682.881 430.398C682.244 429.744 681.739 428.878 681.364 427.798C680.989 426.713 680.804 425.369 680.81 423.767C680.81 422.273 680.969 420.94 681.287 419.77C681.605 418.599 682.062 417.611 682.659 416.804C683.256 415.991 683.974 415.372 684.815 414.946C685.662 414.52 686.608 414.307 687.653 414.307C688.75 414.307 689.722 414.523 690.568 414.955C691.42 415.386 692.108 415.977 692.631 416.727C693.153 417.472 693.477 418.312 693.602 419.25H690.491C690.332 418.58 690.006 418.045 689.511 417.648C689.023 417.244 688.403 417.043 687.653 417.043C686.443 417.043 685.511 417.568 684.858 418.619C684.21 419.67 683.884 421.114 683.878 422.949H683.997C684.276 422.449 684.636 422.02 685.08 421.662C685.523 421.304 686.023 421.028 686.58 420.835C687.142 420.636 687.736 420.537 688.361 420.537C689.384 420.537 690.301 420.781 691.114 421.27C691.932 421.759 692.58 422.432 693.057 423.29C693.534 424.142 693.77 425.119 693.764 426.222C693.77 427.369 693.509 428.401 692.98 429.315C692.452 430.224 691.716 430.94 690.773 431.463C689.83 431.986 688.73 432.244 687.474 432.239ZM687.457 429.682C688.077 429.682 688.631 429.531 689.119 429.23C689.608 428.929 689.994 428.523 690.278 428.011C690.563 427.5 690.702 426.926 690.696 426.29C690.702 425.665 690.565 425.099 690.287 424.594C690.014 424.088 689.636 423.687 689.153 423.392C688.67 423.097 688.119 422.949 687.5 422.949C687.04 422.949 686.611 423.037 686.213 423.213C685.815 423.389 685.469 423.634 685.173 423.946C684.878 424.253 684.645 424.611 684.474 425.02C684.31 425.423 684.224 425.855 684.219 426.315C684.224 426.923 684.366 427.483 684.645 427.994C684.923 428.506 685.307 428.915 685.795 429.222C686.284 429.528 686.838 429.682 687.457 429.682ZM696.815 432V414.545H699.977V422.565H700.19L707 414.545H710.861L704.111 422.378L710.92 432H707.119L701.912 424.517L699.977 426.801V432H696.815Z" fill="#FAFAFA"/>
<path d="M670.19 512L677.614 497.307V497.188H668.997V494.545H680.886V497.247L673.472 512H670.19ZM686.484 507.892L686.475 504.168H686.969L691.674 498.909H695.279L689.492 505.352H688.853L686.484 507.892ZM683.671 512V494.545H686.756V512H683.671ZM691.887 512L687.626 506.043L689.705 503.869L695.577 512H691.887Z" fill="#FAFAFA"/>
<path d="M669.236 588.761V586.247L676.642 574.545H678.739V578.125H677.46L672.474 586.026V586.162H682.812V588.761H669.236ZM677.562 592V587.994L677.597 586.869V574.545H680.58V592H677.562ZM686.978 592.188C686.461 592.188 686.018 592.006 685.648 591.642C685.279 591.278 685.097 590.835 685.103 590.312C685.097 589.801 685.279 589.364 685.648 589C686.018 588.636 686.461 588.455 686.978 588.455C687.478 588.455 687.913 588.636 688.282 589C688.657 589.364 688.847 589.801 688.853 590.312C688.847 590.659 688.756 590.974 688.58 591.259C688.41 591.543 688.183 591.77 687.898 591.94C687.62 592.105 687.313 592.188 686.978 592.188ZM697.806 574.307C698.641 574.312 699.454 574.46 700.244 574.75C701.039 575.034 701.755 575.5 702.391 576.148C703.028 576.79 703.533 577.651 703.908 578.73C704.283 579.81 704.471 581.145 704.471 582.736C704.477 584.236 704.317 585.577 703.994 586.759C703.675 587.935 703.218 588.929 702.621 589.741C702.025 590.554 701.306 591.173 700.465 591.599C699.624 592.026 698.678 592.239 697.627 592.239C696.525 592.239 695.548 592.023 694.695 591.591C693.849 591.159 693.164 590.568 692.641 589.818C692.119 589.068 691.798 588.21 691.678 587.244H694.789C694.948 587.937 695.272 588.489 695.761 588.898C696.255 589.301 696.877 589.503 697.627 589.503C698.837 589.503 699.769 588.977 700.423 587.926C701.076 586.875 701.403 585.415 701.403 583.545H701.283C701.005 584.045 700.644 584.477 700.201 584.841C699.758 585.199 699.255 585.474 698.692 585.668C698.136 585.861 697.545 585.957 696.92 585.957C695.897 585.957 694.977 585.713 694.158 585.224C693.346 584.736 692.701 584.065 692.224 583.213C691.752 582.361 691.513 581.386 691.508 580.29C691.508 579.153 691.769 578.134 692.292 577.23C692.82 576.321 693.556 575.605 694.499 575.082C695.442 574.554 696.545 574.295 697.806 574.307ZM697.815 576.864C697.201 576.864 696.647 577.014 696.153 577.315C695.664 577.611 695.278 578.014 694.994 578.526C694.715 579.031 694.576 579.597 694.576 580.222C694.582 580.841 694.721 581.403 694.994 581.909C695.272 582.415 695.65 582.815 696.127 583.111C696.61 583.406 697.161 583.554 697.781 583.554C698.241 583.554 698.67 583.466 699.067 583.29C699.465 583.114 699.812 582.869 700.107 582.557C700.408 582.239 700.641 581.878 700.806 581.474C700.977 581.071 701.059 580.645 701.053 580.196C701.053 579.599 700.911 579.048 700.627 578.543C700.349 578.037 699.965 577.631 699.477 577.324C698.994 577.017 698.44 576.864 697.815 576.864ZM707.479 592V574.545H710.641V582.565H710.854L717.664 574.545H721.525L714.775 582.378L721.585 592H717.783L712.576 584.517L710.641 586.801V592H707.479Z" fill="#FAFAFA"/>
<path d="M669.236 668.761V666.247L676.642 654.545H678.739V658.125H677.46L672.474 666.026V666.162H682.812V668.761H669.236ZM677.562 672V667.994L677.597 666.869V654.545H680.58V672H677.562ZM686.978 672.188C686.461 672.188 686.018 672.006 685.648 671.642C685.279 671.278 685.097 670.835 685.103 670.312C685.097 669.801 685.279 669.364 685.648 669C686.018 668.636 686.461 668.455 686.978 668.455C687.478 668.455 687.913 668.636 688.282 669C688.657 669.364 688.847 669.801 688.853 670.312C688.847 670.659 688.756 670.974 688.58 671.259C688.41 671.543 688.183 671.77 687.898 671.94C687.62 672.105 687.313 672.188 686.978 672.188ZM696.947 654.545V672H693.786V657.622H693.683L689.601 660.23V657.332L693.939 654.545H696.947ZM701.55 672V654.545H704.712V662.565H704.925L711.734 654.545H715.595L708.845 662.378L715.655 672H711.854L706.646 664.517L704.712 666.801V672H701.55Z" fill="#FAFAFA"/>
<path d="M669.551 752V749.716L675.611 743.776C676.19 743.19 676.673 742.67 677.06 742.216C677.446 741.761 677.736 741.321 677.929 740.895C678.122 740.469 678.219 740.014 678.219 739.531C678.219 738.98 678.094 738.509 677.844 738.116C677.594 737.719 677.25 737.412 676.812 737.196C676.375 736.98 675.878 736.872 675.321 736.872C674.747 736.872 674.244 736.991 673.812 737.23C673.381 737.463 673.045 737.795 672.807 738.227C672.574 738.659 672.457 739.173 672.457 739.77H669.449C669.449 738.662 669.702 737.699 670.207 736.881C670.713 736.062 671.409 735.429 672.295 734.98C673.188 734.531 674.21 734.307 675.364 734.307C676.534 734.307 677.563 734.526 678.449 734.963C679.335 735.401 680.023 736 680.511 736.761C681.006 737.523 681.253 738.392 681.253 739.369C681.253 740.023 681.128 740.665 680.878 741.295C680.628 741.926 680.188 742.625 679.557 743.392C678.932 744.159 678.054 745.088 676.923 746.179L673.915 749.239V749.358H681.517V752H669.551ZM686.392 752.188C685.875 752.188 685.432 752.006 685.062 751.642C684.693 751.278 684.511 750.835 684.517 750.312C684.511 749.801 684.693 749.364 685.062 749C685.432 748.636 685.875 748.455 686.392 748.455C686.892 748.455 687.327 748.636 687.696 749C688.071 749.364 688.261 749.801 688.267 750.312C688.261 750.659 688.17 750.974 687.994 751.259C687.824 751.543 687.597 751.77 687.312 751.94C687.034 752.105 686.727 752.188 686.392 752.188ZM691.418 752V749.716L697.478 743.776C698.058 743.19 698.54 742.67 698.927 742.216C699.313 741.761 699.603 741.321 699.796 740.895C699.989 740.469 700.086 740.014 700.086 739.531C700.086 738.98 699.961 738.509 699.711 738.116C699.461 737.719 699.117 737.412 698.68 737.196C698.242 736.98 697.745 736.872 697.188 736.872C696.614 736.872 696.112 736.991 695.68 737.23C695.248 737.463 694.913 737.795 694.674 738.227C694.441 738.659 694.325 739.173 694.325 739.77H691.316C691.316 738.662 691.569 737.699 692.075 736.881C692.58 736.062 693.276 735.429 694.163 734.98C695.055 734.531 696.077 734.307 697.231 734.307C698.401 734.307 699.43 734.526 700.316 734.963C701.202 735.401 701.89 736 702.379 736.761C702.873 737.523 703.12 738.392 703.12 739.369C703.12 740.023 702.995 740.665 702.745 741.295C702.495 741.926 702.055 742.625 701.424 743.392C700.799 744.159 699.921 745.088 698.79 746.179L695.782 749.239V749.358H703.384V752H691.418ZM706.495 752V734.545H709.657V742.565H709.87L716.68 734.545H720.54L713.79 742.378L720.6 752H716.799L711.592 744.517L709.657 746.801V752H706.495Z" fill="#FAFAFA"/>
<path d="M885.651 414.545V432H882.489V417.622H882.386L878.304 420.23V417.332L882.642 414.545H885.651ZM896.142 414.307C896.977 414.312 897.79 414.46 898.58 414.75C899.375 415.034 900.091 415.5 900.727 416.148C901.364 416.79 901.869 417.651 902.244 418.73C902.619 419.81 902.807 421.145 902.807 422.736C902.813 424.236 902.653 425.577 902.33 426.759C902.011 427.935 901.554 428.929 900.957 429.741C900.361 430.554 899.642 431.173 898.801 431.599C897.96 432.026 897.014 432.239 895.963 432.239C894.861 432.239 893.884 432.023 893.031 431.591C892.185 431.159 891.5 430.568 890.977 429.818C890.455 429.068 890.134 428.21 890.014 427.244H893.125C893.284 427.937 893.608 428.489 894.097 428.898C894.591 429.301 895.213 429.503 895.963 429.503C897.173 429.503 898.105 428.977 898.759 427.926C899.412 426.875 899.739 425.415 899.739 423.545H899.619C899.341 424.045 898.98 424.477 898.537 424.841C898.094 425.199 897.591 425.474 897.028 425.668C896.472 425.861 895.881 425.957 895.256 425.957C894.233 425.957 893.313 425.713 892.494 425.224C891.682 424.736 891.037 424.065 890.56 423.213C890.088 422.361 889.849 421.386 889.844 420.29C889.844 419.153 890.105 418.134 890.628 417.23C891.156 416.321 891.892 415.605 892.835 415.082C893.778 414.554 894.881 414.295 896.142 414.307ZM896.151 416.864C895.537 416.864 894.983 417.014 894.489 417.315C894 417.611 893.614 418.014 893.33 418.526C893.051 419.031 892.912 419.597 892.912 420.222C892.918 420.841 893.057 421.403 893.33 421.909C893.608 422.415 893.986 422.815 894.463 423.111C894.946 423.406 895.497 423.554 896.116 423.554C896.577 423.554 897.006 423.466 897.403 423.29C897.801 423.114 898.148 422.869 898.443 422.557C898.744 422.239 898.977 421.878 899.142 421.474C899.313 421.071 899.395 420.645 899.389 420.196C899.389 419.599 899.247 419.048 898.963 418.543C898.685 418.037 898.301 417.631 897.812 417.324C897.33 417.017 896.776 416.864 896.151 416.864ZM906.9 432.188C906.383 432.188 905.94 432.006 905.57 431.642C905.201 431.278 905.019 430.835 905.025 430.312C905.019 429.801 905.201 429.364 905.57 429C905.94 428.636 906.383 428.455 906.9 428.455C907.4 428.455 907.835 428.636 908.204 429C908.579 429.364 908.769 429.801 908.775 430.312C908.769 430.659 908.678 430.974 908.502 431.259C908.332 431.543 908.104 431.77 907.82 431.94C907.542 432.105 907.235 432.188 906.9 432.188ZM911.926 432V429.716L917.986 423.776C918.565 423.19 919.048 422.67 919.435 422.216C919.821 421.761 920.111 421.321 920.304 420.895C920.497 420.469 920.594 420.014 920.594 419.531C920.594 418.98 920.469 418.509 920.219 418.116C919.969 417.719 919.625 417.412 919.188 417.196C918.75 416.98 918.253 416.872 917.696 416.872C917.122 416.872 916.619 416.991 916.188 417.23C915.756 417.463 915.42 417.795 915.182 418.227C914.949 418.659 914.832 419.173 914.832 419.77H911.824C911.824 418.662 912.077 417.699 912.582 416.881C913.088 416.062 913.784 415.429 914.67 414.98C915.563 414.531 916.585 414.307 917.739 414.307C918.909 414.307 919.938 414.526 920.824 414.963C921.71 415.401 922.398 416 922.886 416.761C923.381 417.523 923.628 418.392 923.628 419.369C923.628 420.023 923.503 420.665 923.253 421.295C923.003 421.926 922.563 422.625 921.932 423.392C921.307 424.159 920.429 425.088 919.298 426.179L916.29 429.239V429.358H923.892V432H911.926ZM927.003 432V414.545H930.165V422.565H930.378L937.188 414.545H941.048L934.298 422.378L941.108 432H937.307L932.099 424.517L930.165 426.801V432H927.003Z" fill="#FAFAFA"/>
<path d="M885.651 494.545V512H882.489V497.622H882.386L878.304 500.23V497.332L882.642 494.545H885.651ZM897.182 494.545V512H894.02V497.622H893.918L889.835 500.23V497.332L894.173 494.545H897.182ZM904.46 507.892L904.452 504.168H904.946L909.651 498.909H913.256L907.469 505.352H906.83L904.46 507.892ZM901.648 512V494.545H904.733V512H901.648ZM909.864 512L905.602 506.043L907.682 503.869L913.554 512H909.864Z" fill="#FAFAFA"/>
<path d="M879.19 592L886.614 577.307V577.188H877.997V574.545H889.886V577.247L882.472 592H879.19ZM891.572 592.188C891.055 592.188 890.612 592.006 890.242 591.642C889.873 591.278 889.691 590.835 889.697 590.312C889.691 589.801 889.873 589.364 890.242 589C890.612 588.636 891.055 588.455 891.572 588.455C892.072 588.455 892.506 588.636 892.876 589C893.251 589.364 893.441 589.801 893.447 590.312C893.441 590.659 893.35 590.974 893.174 591.259C893.004 591.543 892.776 591.77 892.492 591.94C892.214 592.105 891.907 592.188 891.572 592.188ZM896.283 588.761V586.247L903.689 574.545H905.786V578.125H904.507L899.521 586.026V586.162H909.859V588.761H896.283ZM904.609 592V587.994L904.643 586.869V574.545H907.626V592H904.609ZM912.753 592V574.545H915.915V582.565H916.128L922.938 574.545H926.798L920.048 582.378L926.858 592H923.057L917.849 584.517L915.915 586.801V592H912.753Z" fill="#FAFAFA"/>
<path d="M884.619 672.239C883.483 672.239 882.466 672.026 881.568 671.599C880.67 671.168 879.957 670.577 879.429 669.827C878.906 669.077 878.628 668.219 878.594 667.253H881.662C881.719 667.969 882.028 668.554 882.591 669.009C883.153 669.457 883.83 669.682 884.619 669.682C885.239 669.682 885.79 669.54 886.273 669.256C886.756 668.972 887.136 668.577 887.415 668.071C887.693 667.565 887.83 666.989 887.824 666.341C887.83 665.682 887.69 665.097 887.406 664.585C887.122 664.074 886.733 663.673 886.239 663.384C885.744 663.088 885.176 662.94 884.534 662.94C884.011 662.935 883.497 663.031 882.991 663.23C882.486 663.429 882.085 663.69 881.79 664.014L878.935 663.545L879.847 654.545H889.972V657.188H882.463L881.96 661.815H882.062C882.386 661.435 882.844 661.119 883.435 660.869C884.026 660.614 884.673 660.486 885.378 660.486C886.435 660.486 887.378 660.736 888.207 661.236C889.037 661.73 889.69 662.412 890.168 663.281C890.645 664.151 890.884 665.145 890.884 666.264C890.884 667.418 890.616 668.446 890.082 669.349C889.554 670.247 888.818 670.955 887.875 671.472C886.938 671.983 885.852 672.239 884.619 672.239ZM893.909 672V654.545H897.071V662.565H897.284L904.094 654.545H907.955L901.205 662.378L908.014 672H904.213L899.006 664.517L897.071 666.801V672H893.909Z" fill="#FAFAFA"/>
<path d="M884.815 752.239C883.588 752.239 882.497 752.028 881.543 751.608C880.594 751.187 879.844 750.602 879.293 749.852C878.741 749.102 878.449 748.236 878.415 747.253H881.619C881.648 747.724 881.804 748.136 882.088 748.489C882.372 748.835 882.75 749.105 883.222 749.298C883.693 749.491 884.222 749.588 884.807 749.588C885.432 749.588 885.986 749.48 886.469 749.264C886.952 749.043 887.33 748.736 887.602 748.344C887.875 747.952 888.009 747.5 888.003 746.989C888.009 746.46 887.872 745.994 887.594 745.591C887.315 745.187 886.912 744.872 886.384 744.645C885.861 744.418 885.23 744.304 884.491 744.304H882.949V741.866H884.491C885.099 741.866 885.631 741.761 886.085 741.551C886.545 741.341 886.906 741.045 887.168 740.665C887.429 740.278 887.557 739.832 887.551 739.327C887.557 738.832 887.446 738.403 887.219 738.04C886.997 737.67 886.682 737.384 886.273 737.179C885.869 736.974 885.395 736.872 884.849 736.872C884.315 736.872 883.821 736.969 883.366 737.162C882.912 737.355 882.545 737.631 882.267 737.989C881.989 738.341 881.841 738.761 881.824 739.25H878.781C878.804 738.273 879.085 737.415 879.625 736.676C880.17 735.932 880.898 735.352 881.807 734.938C882.716 734.517 883.736 734.307 884.866 734.307C886.031 734.307 887.043 734.526 887.901 734.963C888.764 735.395 889.432 735.977 889.903 736.71C890.375 737.443 890.611 738.253 890.611 739.139C890.616 740.122 890.327 740.946 889.741 741.611C889.162 742.276 888.401 742.71 887.457 742.915V743.051C888.685 743.222 889.625 743.676 890.278 744.415C890.938 745.148 891.264 746.06 891.259 747.151C891.259 748.128 890.98 749.003 890.423 749.776C889.872 750.543 889.111 751.145 888.139 751.582C887.173 752.02 886.065 752.239 884.815 752.239ZM895.603 752.188C895.086 752.188 894.643 752.006 894.273 751.642C893.904 751.278 893.722 750.835 893.728 750.312C893.722 749.801 893.904 749.364 894.273 749C894.643 748.636 895.086 748.455 895.603 748.455C896.103 748.455 896.538 748.636 896.907 749C897.282 749.364 897.472 749.801 897.478 750.312C897.472 750.659 897.381 750.974 897.205 751.259C897.035 751.543 896.808 751.77 896.523 751.94C896.245 752.105 895.938 752.188 895.603 752.188ZM905.572 734.545V752H902.411V737.622H902.308L898.226 740.23V737.332L902.564 734.545H905.572ZM910.175 752V734.545H913.337V742.565H913.55L920.359 734.545H924.22L917.47 742.378L924.28 752H920.479L915.271 744.517L913.337 746.801V752H910.175Z" fill="#FAFAFA"/>
<path d="M118.361 493.727L112.736 514.625H110.46L116.085 493.727H118.361ZM120.526 516.909V498.909H123.014V501.031H123.227C123.375 500.759 123.588 500.443 123.866 500.085C124.145 499.727 124.531 499.415 125.026 499.148C125.52 498.875 126.173 498.739 126.986 498.739C128.043 498.739 128.986 499.006 129.815 499.54C130.645 500.074 131.295 500.844 131.767 501.849C132.244 502.855 132.483 504.065 132.483 505.48C132.483 506.895 132.247 508.108 131.776 509.119C131.304 510.125 130.656 510.901 129.832 511.446C129.009 511.986 128.068 512.256 127.011 512.256C126.216 512.256 125.565 512.122 125.06 511.855C124.56 511.588 124.168 511.276 123.884 510.918C123.599 510.56 123.381 510.241 123.227 509.963H123.074V516.909H120.526ZM123.023 505.455C123.023 506.375 123.156 507.182 123.423 507.875C123.69 508.568 124.077 509.111 124.582 509.503C125.088 509.889 125.707 510.082 126.44 510.082C127.202 510.082 127.838 509.881 128.349 509.477C128.861 509.068 129.247 508.514 129.509 507.815C129.776 507.116 129.909 506.33 129.909 505.455C129.909 504.591 129.778 503.815 129.517 503.128C129.261 502.44 128.875 501.898 128.358 501.5C127.847 501.102 127.207 500.903 126.44 500.903C125.702 500.903 125.077 501.094 124.565 501.474C124.06 501.855 123.676 502.386 123.415 503.068C123.153 503.75 123.023 504.545 123.023 505.455ZM135.338 512V498.909H137.801V500.989H137.938C138.176 500.284 138.597 499.73 139.199 499.327C139.807 498.918 140.494 498.713 141.261 498.713C141.42 498.713 141.608 498.719 141.824 498.73C142.045 498.741 142.219 498.756 142.344 498.773V501.21C142.241 501.182 142.06 501.151 141.798 501.116C141.537 501.077 141.276 501.057 141.014 501.057C140.412 501.057 139.875 501.185 139.403 501.44C138.938 501.69 138.568 502.04 138.295 502.489C138.023 502.932 137.886 503.437 137.886 504.006V512H135.338ZM149.594 512.264C148.367 512.264 147.296 511.983 146.381 511.42C145.467 510.858 144.756 510.071 144.251 509.06C143.745 508.048 143.492 506.866 143.492 505.514C143.492 504.156 143.745 502.969 144.251 501.952C144.756 500.935 145.467 500.145 146.381 499.582C147.296 499.02 148.367 498.739 149.594 498.739C150.822 498.739 151.893 499.02 152.808 499.582C153.722 500.145 154.433 500.935 154.938 501.952C155.444 502.969 155.697 504.156 155.697 505.514C155.697 506.866 155.444 508.048 154.938 509.06C154.433 510.071 153.722 510.858 152.808 511.42C151.893 511.983 150.822 512.264 149.594 512.264ZM149.603 510.125C150.398 510.125 151.058 509.915 151.58 509.494C152.103 509.074 152.489 508.514 152.739 507.815C152.995 507.116 153.123 506.347 153.123 505.506C153.123 504.67 152.995 503.903 152.739 503.205C152.489 502.5 152.103 501.935 151.58 501.509C151.058 501.082 150.398 500.869 149.603 500.869C148.802 500.869 148.137 501.082 147.609 501.509C147.086 501.935 146.697 502.5 146.441 503.205C146.191 503.903 146.066 504.67 146.066 505.506C146.066 506.347 146.191 507.116 146.441 507.815C146.697 508.514 147.086 509.074 147.609 509.494C148.137 509.915 148.802 510.125 149.603 510.125ZM163.442 512.256C162.385 512.256 161.442 511.986 160.612 511.446C159.788 510.901 159.141 510.125 158.669 509.119C158.203 508.108 157.97 506.895 157.97 505.48C157.97 504.065 158.206 502.855 158.678 501.849C159.155 500.844 159.808 500.074 160.638 499.54C161.467 499.006 162.408 498.739 163.459 498.739C164.271 498.739 164.925 498.875 165.419 499.148C165.919 499.415 166.305 499.727 166.578 500.085C166.857 500.443 167.072 500.759 167.226 501.031H167.379V494.545H169.928V512H167.439V509.963H167.226C167.072 510.241 166.851 510.56 166.561 510.918C166.277 511.276 165.885 511.588 165.385 511.855C164.885 512.122 164.237 512.256 163.442 512.256ZM164.004 510.082C164.737 510.082 165.357 509.889 165.862 509.503C166.374 509.111 166.76 508.568 167.021 507.875C167.288 507.182 167.422 506.375 167.422 505.455C167.422 504.545 167.291 503.75 167.03 503.068C166.768 502.386 166.385 501.855 165.879 501.474C165.374 501.094 164.749 500.903 164.004 500.903C163.237 500.903 162.598 501.102 162.087 501.5C161.575 501.898 161.189 502.44 160.928 503.128C160.672 503.815 160.544 504.591 160.544 505.455C160.544 506.33 160.675 507.116 160.936 507.815C161.197 508.514 161.584 509.068 162.095 509.477C162.612 509.881 163.249 510.082 164.004 510.082ZM181.857 506.571V498.909H184.414V512H181.908V509.733H181.772C181.471 510.432 180.988 511.014 180.323 511.48C179.664 511.94 178.843 512.17 177.86 512.17C177.019 512.17 176.275 511.986 175.627 511.616C174.985 511.241 174.479 510.688 174.11 509.955C173.746 509.222 173.565 508.315 173.565 507.236V498.909H176.113V506.929C176.113 507.821 176.36 508.531 176.854 509.06C177.349 509.588 177.991 509.852 178.781 509.852C179.258 509.852 179.732 509.733 180.204 509.494C180.681 509.256 181.076 508.895 181.388 508.412C181.707 507.929 181.863 507.315 181.857 506.571ZM193.352 512.264C192.085 512.264 190.994 511.977 190.08 511.403C189.17 510.824 188.472 510.026 187.983 509.009C187.494 507.991 187.25 506.827 187.25 505.514C187.25 504.185 187.5 503.011 188 501.994C188.5 500.972 189.205 500.173 190.114 499.599C191.023 499.026 192.094 498.739 193.327 498.739C194.321 498.739 195.207 498.923 195.986 499.293C196.764 499.656 197.392 500.168 197.869 500.827C198.352 501.486 198.639 502.256 198.73 503.136H196.25C196.114 502.523 195.801 501.994 195.312 501.551C194.83 501.108 194.182 500.886 193.369 500.886C192.659 500.886 192.037 501.074 191.503 501.449C190.974 501.818 190.563 502.347 190.267 503.034C189.972 503.716 189.824 504.523 189.824 505.455C189.824 506.409 189.969 507.233 190.259 507.926C190.548 508.619 190.957 509.156 191.486 509.537C192.02 509.918 192.648 510.108 193.369 510.108C193.852 510.108 194.29 510.02 194.682 509.844C195.08 509.662 195.412 509.403 195.679 509.068C195.952 508.733 196.142 508.33 196.25 507.858H198.73C198.639 508.705 198.364 509.46 197.903 510.125C197.443 510.79 196.827 511.312 196.054 511.693C195.287 512.074 194.386 512.264 193.352 512.264ZM207.566 498.909V500.955H200.415V498.909H207.566ZM202.333 495.773H204.881V508.156C204.881 508.651 204.955 509.023 205.103 509.273C205.251 509.517 205.441 509.685 205.674 509.776C205.913 509.861 206.171 509.903 206.45 509.903C206.654 509.903 206.833 509.889 206.987 509.861C207.14 509.832 207.259 509.81 207.344 509.793L207.805 511.898C207.657 511.955 207.447 512.011 207.174 512.068C206.901 512.131 206.56 512.165 206.151 512.17C205.481 512.182 204.856 512.062 204.276 511.812C203.697 511.562 203.228 511.176 202.87 510.653C202.512 510.131 202.333 509.474 202.333 508.685V495.773ZM217.033 493.727L211.408 514.625H209.132L214.757 493.727H217.033ZM224.712 512.264C223.445 512.264 222.354 511.977 221.439 511.403C220.53 510.824 219.831 510.026 219.342 509.009C218.854 507.991 218.609 506.827 218.609 505.514C218.609 504.185 218.859 503.011 219.359 501.994C219.859 500.972 220.564 500.173 221.473 499.599C222.382 499.026 223.453 498.739 224.686 498.739C225.68 498.739 226.567 498.923 227.345 499.293C228.124 499.656 228.751 500.168 229.229 500.827C229.712 501.486 229.999 502.256 230.089 503.136H227.609C227.473 502.523 227.161 501.994 226.672 501.551C226.189 501.108 225.541 500.886 224.729 500.886C224.018 500.886 223.396 501.074 222.862 501.449C222.334 501.818 221.922 502.347 221.626 503.034C221.331 503.716 221.183 504.523 221.183 505.455C221.183 506.409 221.328 507.233 221.618 507.926C221.908 508.619 222.317 509.156 222.845 509.537C223.379 509.918 224.007 510.108 224.729 510.108C225.212 510.108 225.649 510.02 226.041 509.844C226.439 509.662 226.771 509.403 227.038 509.068C227.311 508.733 227.501 508.33 227.609 507.858H230.089C229.999 508.705 229.723 509.46 229.263 510.125C228.803 510.79 228.186 511.312 227.413 511.693C226.646 512.074 225.746 512.264 224.712 512.264ZM232.815 516.909V498.909H235.303V501.031H235.516C235.664 500.759 235.877 500.443 236.156 500.085C236.434 499.727 236.82 499.415 237.315 499.148C237.809 498.875 238.462 498.739 239.275 498.739C240.332 498.739 241.275 499.006 242.104 499.54C242.934 500.074 243.585 500.844 244.056 501.849C244.533 502.855 244.772 504.065 244.772 505.48C244.772 506.895 244.536 508.108 244.065 509.119C243.593 510.125 242.945 510.901 242.121 511.446C241.298 511.986 240.357 512.256 239.3 512.256C238.505 512.256 237.854 512.122 237.349 511.855C236.849 511.588 236.457 511.276 236.173 510.918C235.888 510.56 235.67 510.241 235.516 509.963H235.363V516.909H232.815ZM235.312 505.455C235.312 506.375 235.445 507.182 235.712 507.875C235.979 508.568 236.366 509.111 236.871 509.503C237.377 509.889 237.996 510.082 238.729 510.082C239.491 510.082 240.127 509.881 240.638 509.477C241.15 509.068 241.536 508.514 241.798 507.815C242.065 507.116 242.198 506.33 242.198 505.455C242.198 504.591 242.067 503.815 241.806 503.128C241.55 502.44 241.164 501.898 240.647 501.5C240.136 501.102 239.496 500.903 238.729 500.903C237.991 500.903 237.366 501.094 236.854 501.474C236.349 501.855 235.965 502.386 235.704 503.068C235.442 503.75 235.312 504.545 235.312 505.455ZM255.92 506.571V498.909H258.477V512H255.971V509.733H255.835C255.533 510.432 255.05 511.014 254.386 511.48C253.727 511.94 252.906 512.17 251.923 512.17C251.082 512.17 250.337 511.986 249.69 511.616C249.048 511.241 248.542 510.688 248.173 509.955C247.809 509.222 247.627 508.315 247.627 507.236V498.909H250.175V506.929C250.175 507.821 250.423 508.531 250.917 509.06C251.411 509.588 252.053 509.852 252.843 509.852C253.32 509.852 253.795 509.733 254.266 509.494C254.744 509.256 255.138 508.895 255.451 508.412C255.769 507.929 255.925 507.315 255.92 506.571Z" fill="#ECF3FA"/>
<path d="M118.361 573.727L112.736 594.625H110.46L116.085 573.727H118.361ZM126.04 592.264C124.773 592.264 123.682 591.977 122.767 591.403C121.858 590.824 121.159 590.026 120.67 589.009C120.182 587.991 119.938 586.827 119.938 585.514C119.938 584.185 120.188 583.011 120.688 581.994C121.188 580.972 121.892 580.173 122.801 579.599C123.71 579.026 124.781 578.739 126.014 578.739C127.009 578.739 127.895 578.923 128.673 579.293C129.452 579.656 130.08 580.168 130.557 580.827C131.04 581.486 131.327 582.256 131.418 583.136H128.938C128.801 582.523 128.489 581.994 128 581.551C127.517 581.108 126.869 580.886 126.057 580.886C125.347 580.886 124.724 581.074 124.19 581.449C123.662 581.818 123.25 582.347 122.955 583.034C122.659 583.716 122.511 584.523 122.511 585.455C122.511 586.409 122.656 587.233 122.946 587.926C123.236 588.619 123.645 589.156 124.173 589.537C124.707 589.918 125.335 590.108 126.057 590.108C126.54 590.108 126.977 590.02 127.369 589.844C127.767 589.662 128.099 589.403 128.366 589.068C128.639 588.733 128.83 588.33 128.938 587.858H131.418C131.327 588.705 131.051 589.46 130.591 590.125C130.131 590.79 129.514 591.312 128.741 591.693C127.974 592.074 127.074 592.264 126.04 592.264ZM137.952 592.29C137.123 592.29 136.373 592.136 135.702 591.83C135.032 591.517 134.501 591.065 134.109 590.474C133.722 589.884 133.529 589.159 133.529 588.301C133.529 587.562 133.671 586.955 133.955 586.477C134.239 586 134.623 585.622 135.106 585.344C135.589 585.065 136.129 584.855 136.725 584.713C137.322 584.571 137.93 584.463 138.549 584.389C139.333 584.298 139.969 584.224 140.458 584.168C140.947 584.105 141.302 584.006 141.523 583.869C141.745 583.733 141.856 583.511 141.856 583.205V583.145C141.856 582.401 141.646 581.824 141.225 581.415C140.81 581.006 140.191 580.801 139.367 580.801C138.509 580.801 137.833 580.991 137.339 581.372C136.85 581.747 136.512 582.165 136.325 582.625L133.93 582.08C134.214 581.284 134.629 580.642 135.174 580.153C135.725 579.659 136.359 579.301 137.075 579.08C137.79 578.852 138.543 578.739 139.333 578.739C139.856 578.739 140.41 578.801 140.995 578.926C141.586 579.045 142.137 579.267 142.648 579.591C143.165 579.915 143.589 580.378 143.918 580.98C144.248 581.577 144.413 582.352 144.413 583.307V592H141.924V590.21H141.822C141.657 590.54 141.41 590.864 141.08 591.182C140.751 591.5 140.327 591.764 139.81 591.974C139.293 592.185 138.674 592.29 137.952 592.29ZM138.506 590.244C139.211 590.244 139.813 590.105 140.313 589.827C140.819 589.548 141.202 589.185 141.464 588.736C141.731 588.281 141.864 587.795 141.864 587.278V585.591C141.773 585.682 141.597 585.767 141.336 585.847C141.08 585.92 140.788 585.986 140.458 586.043C140.129 586.094 139.808 586.142 139.495 586.188C139.183 586.227 138.921 586.261 138.711 586.29C138.217 586.352 137.765 586.457 137.356 586.605C136.952 586.753 136.629 586.966 136.384 587.244C136.146 587.517 136.026 587.881 136.026 588.335C136.026 588.966 136.259 589.443 136.725 589.767C137.191 590.085 137.785 590.244 138.506 590.244ZM147.807 592V578.909H150.27V580.989H150.406C150.645 580.284 151.065 579.73 151.668 579.327C152.276 578.918 152.963 578.713 153.73 578.713C153.889 578.713 154.077 578.719 154.293 578.73C154.514 578.741 154.688 578.756 154.812 578.773V581.21C154.71 581.182 154.528 581.151 154.267 581.116C154.006 581.077 153.744 581.057 153.483 581.057C152.881 581.057 152.344 581.185 151.872 581.44C151.406 581.69 151.037 582.04 150.764 582.489C150.491 582.932 150.355 583.437 150.355 584.006V592H147.807ZM163.902 578.909V580.955H156.751V578.909H163.902ZM158.669 575.773H161.217V588.156C161.217 588.651 161.291 589.023 161.439 589.273C161.587 589.517 161.777 589.685 162.01 589.776C162.249 589.861 162.507 589.903 162.786 589.903C162.99 589.903 163.169 589.889 163.322 589.861C163.476 589.832 163.595 589.81 163.68 589.793L164.141 591.898C163.993 591.955 163.783 592.011 163.51 592.068C163.237 592.131 162.896 592.165 162.487 592.17C161.817 592.182 161.192 592.062 160.612 591.812C160.033 591.562 159.564 591.176 159.206 590.653C158.848 590.131 158.669 589.474 158.669 588.685V575.773Z" fill="#ECF3FA"/>
<path d="M118.361 653.727L112.736 674.625H110.46L116.085 653.727H118.361ZM130.335 662.105L128.026 662.514C127.929 662.219 127.776 661.937 127.565 661.67C127.361 661.403 127.082 661.185 126.73 661.014C126.378 660.844 125.938 660.759 125.409 660.759C124.688 660.759 124.085 660.92 123.602 661.244C123.119 661.562 122.878 661.974 122.878 662.48C122.878 662.918 123.04 663.27 123.364 663.537C123.688 663.804 124.21 664.023 124.932 664.193L127.011 664.67C128.216 664.949 129.114 665.378 129.705 665.957C130.295 666.537 130.591 667.29 130.591 668.216C130.591 669 130.364 669.699 129.909 670.312C129.46 670.92 128.832 671.398 128.026 671.744C127.224 672.091 126.295 672.264 125.239 672.264C123.773 672.264 122.577 671.952 121.651 671.327C120.724 670.696 120.156 669.801 119.946 668.642L122.409 668.267C122.563 668.909 122.878 669.395 123.355 669.724C123.832 670.048 124.455 670.21 125.222 670.21C126.057 670.21 126.724 670.037 127.224 669.69C127.724 669.338 127.974 668.909 127.974 668.403C127.974 667.994 127.821 667.651 127.514 667.372C127.213 667.094 126.75 666.884 126.125 666.741L123.909 666.256C122.688 665.977 121.784 665.534 121.199 664.926C120.619 664.318 120.33 663.548 120.33 662.616C120.33 661.844 120.545 661.168 120.977 660.588C121.409 660.009 122.006 659.557 122.767 659.233C123.528 658.903 124.401 658.739 125.384 658.739C126.798 658.739 127.912 659.045 128.724 659.659C129.537 660.267 130.074 661.082 130.335 662.105ZM141.685 666.571V658.909H144.242V672H141.737V669.733H141.6C141.299 670.432 140.816 671.014 140.151 671.48C139.492 671.94 138.671 672.17 137.688 672.17C136.847 672.17 136.103 671.986 135.455 671.616C134.813 671.241 134.308 670.688 133.938 669.955C133.575 669.222 133.393 668.315 133.393 667.236V658.909H135.941V666.929C135.941 667.821 136.188 668.531 136.683 669.06C137.177 669.588 137.819 669.852 138.609 669.852C139.086 669.852 139.56 669.733 140.032 669.494C140.509 669.256 140.904 668.895 141.217 668.412C141.535 667.929 141.691 667.315 141.685 666.571ZM147.666 676.909V658.909H150.155V661.031H150.368C150.516 660.759 150.729 660.443 151.007 660.085C151.286 659.727 151.672 659.415 152.166 659.148C152.661 658.875 153.314 658.739 154.126 658.739C155.183 658.739 156.126 659.006 156.956 659.54C157.786 660.074 158.436 660.844 158.908 661.849C159.385 662.855 159.624 664.065 159.624 665.48C159.624 666.895 159.388 668.108 158.916 669.119C158.445 670.125 157.797 670.901 156.973 671.446C156.149 671.986 155.209 672.256 154.152 672.256C153.357 672.256 152.706 672.122 152.2 671.855C151.7 671.588 151.308 671.276 151.024 670.918C150.74 670.56 150.521 670.241 150.368 669.963H150.214V676.909H147.666ZM150.163 665.455C150.163 666.375 150.297 667.182 150.564 667.875C150.831 668.568 151.217 669.111 151.723 669.503C152.229 669.889 152.848 670.082 153.581 670.082C154.342 670.082 154.979 669.881 155.49 669.477C156.001 669.068 156.388 668.514 156.649 667.815C156.916 667.116 157.05 666.33 157.05 665.455C157.05 664.591 156.919 663.815 156.658 663.128C156.402 662.44 156.016 661.898 155.499 661.5C154.987 661.102 154.348 660.903 153.581 660.903C152.842 660.903 152.217 661.094 151.706 661.474C151.2 661.855 150.817 662.386 150.555 663.068C150.294 663.75 150.163 664.545 150.163 665.455ZM162.479 676.909V658.909H164.967V661.031H165.18C165.328 660.759 165.541 660.443 165.82 660.085C166.098 659.727 166.484 659.415 166.979 659.148C167.473 658.875 168.126 658.739 168.939 658.739C169.996 658.739 170.939 659.006 171.768 659.54C172.598 660.074 173.249 660.844 173.72 661.849C174.197 662.855 174.436 664.065 174.436 665.48C174.436 666.895 174.2 668.108 173.729 669.119C173.257 670.125 172.609 670.901 171.786 671.446C170.962 671.986 170.021 672.256 168.964 672.256C168.169 672.256 167.518 672.122 167.013 671.855C166.513 671.588 166.121 671.276 165.837 670.918C165.553 670.56 165.334 670.241 165.18 669.963H165.027V676.909H162.479ZM164.976 665.455C164.976 666.375 165.109 667.182 165.376 667.875C165.643 668.568 166.03 669.111 166.536 669.503C167.041 669.889 167.661 670.082 168.393 670.082C169.155 670.082 169.791 669.881 170.303 669.477C170.814 669.068 171.2 668.514 171.462 667.815C171.729 667.116 171.862 666.33 171.862 665.455C171.862 664.591 171.732 663.815 171.47 663.128C171.214 662.44 170.828 661.898 170.311 661.5C169.8 661.102 169.161 660.903 168.393 660.903C167.655 660.903 167.03 661.094 166.518 661.474C166.013 661.855 165.629 662.386 165.368 663.068C165.107 663.75 164.976 664.545 164.976 665.455ZM182.805 672.264C181.578 672.264 180.507 671.983 179.592 671.42C178.678 670.858 177.967 670.071 177.462 669.06C176.956 668.048 176.703 666.866 176.703 665.514C176.703 664.156 176.956 662.969 177.462 661.952C177.967 660.935 178.678 660.145 179.592 659.582C180.507 659.02 181.578 658.739 182.805 658.739C184.033 658.739 185.104 659.02 186.018 659.582C186.933 660.145 187.643 660.935 188.149 661.952C188.655 662.969 188.908 664.156 188.908 665.514C188.908 666.866 188.655 668.048 188.149 669.06C187.643 670.071 186.933 670.858 186.018 671.42C185.104 671.983 184.033 672.264 182.805 672.264ZM182.814 670.125C183.609 670.125 184.268 669.915 184.791 669.494C185.314 669.074 185.7 668.514 185.95 667.815C186.206 667.116 186.334 666.347 186.334 665.506C186.334 664.67 186.206 663.903 185.95 663.205C185.7 662.5 185.314 661.935 184.791 661.509C184.268 661.082 183.609 660.869 182.814 660.869C182.013 660.869 181.348 661.082 180.82 661.509C180.297 661.935 179.908 662.5 179.652 663.205C179.402 663.903 179.277 664.67 179.277 665.506C179.277 666.347 179.402 667.116 179.652 667.815C179.908 668.514 180.297 669.074 180.82 669.494C181.348 669.915 182.013 670.125 182.814 670.125ZM191.752 672V658.909H194.215V660.989H194.352C194.59 660.284 195.011 659.73 195.613 659.327C196.221 658.918 196.908 658.713 197.675 658.713C197.835 658.713 198.022 658.719 198.238 658.73C198.46 658.741 198.633 658.756 198.758 658.773V661.21C198.656 661.182 198.474 661.151 198.212 661.116C197.951 661.077 197.69 661.057 197.428 661.057C196.826 661.057 196.289 661.185 195.817 661.44C195.352 661.69 194.982 662.04 194.71 662.489C194.437 662.932 194.3 663.437 194.3 664.006V672H191.752ZM207.847 658.909V660.955H200.697V658.909H207.847ZM202.614 655.773H205.163V668.156C205.163 668.651 205.237 669.023 205.384 669.273C205.532 669.517 205.722 669.685 205.955 669.776C206.194 669.861 206.452 669.903 206.731 669.903C206.935 669.903 207.114 669.889 207.268 669.861C207.421 669.832 207.54 669.81 207.626 669.793L208.086 671.898C207.938 671.955 207.728 672.011 207.455 672.068C207.183 672.131 206.842 672.165 206.433 672.17C205.762 672.182 205.137 672.062 204.558 671.812C203.978 671.562 203.509 671.176 203.151 670.653C202.793 670.131 202.614 669.474 202.614 668.685V655.773Z" fill="#ECF3FA"/>
<path d="M118.361 733.727L112.736 754.625H110.46L116.085 733.727H118.361ZM123.074 734.545V752H120.526V734.545H123.074ZM132.144 752.264C130.854 752.264 129.744 751.989 128.812 751.438C127.886 750.881 127.17 750.099 126.664 749.094C126.164 748.082 125.914 746.898 125.914 745.54C125.914 744.199 126.164 743.017 126.664 741.994C127.17 740.972 127.874 740.173 128.778 739.599C129.687 739.026 130.749 738.739 131.965 738.739C132.704 738.739 133.42 738.861 134.113 739.105C134.806 739.349 135.428 739.733 135.979 740.256C136.531 740.778 136.965 741.457 137.283 742.293C137.602 743.122 137.761 744.131 137.761 745.318V746.222H127.354V744.312H135.263C135.263 743.642 135.127 743.048 134.854 742.531C134.582 742.009 134.198 741.597 133.704 741.295C133.215 740.994 132.641 740.844 131.982 740.844C131.266 740.844 130.641 741.02 130.107 741.372C129.579 741.719 129.17 742.173 128.88 742.736C128.596 743.293 128.454 743.898 128.454 744.551V746.043C128.454 746.918 128.607 747.662 128.914 748.276C129.227 748.889 129.661 749.358 130.218 749.682C130.775 750 131.425 750.159 132.17 750.159C132.653 750.159 133.093 750.091 133.491 749.955C133.888 749.812 134.232 749.602 134.522 749.324C134.812 749.045 135.033 748.702 135.187 748.293L137.599 748.727C137.406 749.437 137.059 750.06 136.559 750.594C136.065 751.122 135.442 751.534 134.692 751.83C133.948 752.119 133.099 752.264 132.144 752.264ZM146.077 757.182C145.037 757.182 144.142 757.045 143.392 756.773C142.648 756.5 142.04 756.139 141.568 755.69C141.097 755.241 140.744 754.75 140.511 754.216L142.702 753.312C142.855 753.562 143.06 753.827 143.315 754.105C143.577 754.389 143.929 754.631 144.372 754.83C144.821 755.028 145.398 755.128 146.102 755.128C147.068 755.128 147.866 754.892 148.497 754.42C149.128 753.955 149.443 753.21 149.443 752.188V749.614H149.281C149.128 749.892 148.906 750.202 148.616 750.543C148.332 750.884 147.94 751.179 147.44 751.429C146.94 751.679 146.29 751.804 145.489 751.804C144.455 751.804 143.523 751.562 142.693 751.08C141.869 750.591 141.216 749.872 140.733 748.923C140.256 747.969 140.017 746.795 140.017 745.403C140.017 744.011 140.253 742.818 140.724 741.824C141.202 740.83 141.855 740.068 142.685 739.54C143.514 739.006 144.455 738.739 145.506 738.739C146.318 738.739 146.974 738.875 147.474 739.148C147.974 739.415 148.364 739.727 148.642 740.085C148.926 740.443 149.145 740.759 149.298 741.031H149.486V738.909H151.983V752.29C151.983 753.415 151.722 754.338 151.199 755.06C150.676 755.781 149.969 756.315 149.077 756.662C148.19 757.009 147.19 757.182 146.077 757.182ZM146.051 749.69C146.784 749.69 147.403 749.52 147.909 749.179C148.42 748.832 148.807 748.338 149.068 747.696C149.335 747.048 149.469 746.273 149.469 745.369C149.469 744.489 149.338 743.713 149.077 743.043C148.815 742.372 148.432 741.849 147.926 741.474C147.42 741.094 146.795 740.903 146.051 740.903C145.284 740.903 144.645 741.102 144.134 741.5C143.622 741.892 143.236 742.426 142.974 743.102C142.719 743.778 142.591 744.534 142.591 745.369C142.591 746.227 142.722 746.98 142.983 747.628C143.244 748.276 143.631 748.781 144.142 749.145C144.659 749.509 145.295 749.69 146.051 749.69ZM159.21 752.29C158.381 752.29 157.631 752.136 156.96 751.83C156.29 751.517 155.759 751.065 155.366 750.474C154.98 749.884 154.787 749.159 154.787 748.301C154.787 747.562 154.929 746.955 155.213 746.477C155.497 746 155.881 745.622 156.364 745.344C156.847 745.065 157.386 744.855 157.983 744.713C158.58 744.571 159.188 744.463 159.807 744.389C160.591 744.298 161.227 744.224 161.716 744.168C162.205 744.105 162.56 744.006 162.781 743.869C163.003 743.733 163.114 743.511 163.114 743.205V743.145C163.114 742.401 162.903 741.824 162.483 741.415C162.068 741.006 161.449 740.801 160.625 740.801C159.767 740.801 159.091 740.991 158.597 741.372C158.108 741.747 157.77 742.165 157.582 742.625L155.188 742.08C155.472 741.284 155.886 740.642 156.432 740.153C156.983 739.659 157.616 739.301 158.332 739.08C159.048 738.852 159.801 738.739 160.591 738.739C161.114 738.739 161.668 738.801 162.253 738.926C162.844 739.045 163.395 739.267 163.906 739.591C164.423 739.915 164.847 740.378 165.176 740.98C165.506 741.577 165.67 742.352 165.67 743.307V752H163.182V750.21H163.08C162.915 750.54 162.668 750.864 162.338 751.182C162.009 751.5 161.585 751.764 161.068 751.974C160.551 752.185 159.932 752.29 159.21 752.29ZM159.764 750.244C160.469 750.244 161.071 750.105 161.571 749.827C162.077 749.548 162.46 749.185 162.722 748.736C162.989 748.281 163.122 747.795 163.122 747.278V745.591C163.031 745.682 162.855 745.767 162.594 745.847C162.338 745.92 162.045 745.986 161.716 746.043C161.386 746.094 161.065 746.142 160.753 746.188C160.44 746.227 160.179 746.261 159.969 746.29C159.474 746.352 159.023 746.457 158.614 746.605C158.21 746.753 157.886 746.966 157.642 747.244C157.403 747.517 157.284 747.881 157.284 748.335C157.284 748.966 157.517 749.443 157.983 749.767C158.449 750.085 159.043 750.244 159.764 750.244ZM171.613 734.545V752H169.065V734.545H171.613ZM181.689 733.727L176.064 754.625H173.788L179.413 733.727H181.689ZM183.854 756.909V738.909H186.342V741.031H186.555C186.703 740.759 186.916 740.443 187.195 740.085C187.473 739.727 187.859 739.415 188.354 739.148C188.848 738.875 189.501 738.739 190.314 738.739C191.371 738.739 192.314 739.006 193.143 739.54C193.973 740.074 194.624 740.844 195.095 741.849C195.572 742.855 195.811 744.065 195.811 745.48C195.811 746.895 195.575 748.108 195.104 749.119C194.632 750.125 193.984 750.901 193.161 751.446C192.337 751.986 191.396 752.256 190.339 752.256C189.544 752.256 188.893 752.122 188.388 751.855C187.888 751.588 187.496 751.276 187.212 750.918C186.928 750.56 186.709 750.241 186.555 749.963H186.402V756.909H183.854ZM186.351 745.455C186.351 746.375 186.484 747.182 186.751 747.875C187.018 748.568 187.405 749.111 187.911 749.503C188.416 749.889 189.036 750.082 189.768 750.082C190.53 750.082 191.166 749.881 191.678 749.477C192.189 749.068 192.575 748.514 192.837 747.815C193.104 747.116 193.237 746.33 193.237 745.455C193.237 744.591 193.107 743.815 192.845 743.128C192.589 742.44 192.203 741.898 191.686 741.5C191.175 741.102 190.536 740.903 189.768 740.903C189.03 740.903 188.405 741.094 187.893 741.474C187.388 741.855 187.004 742.386 186.743 743.068C186.482 743.75 186.351 744.545 186.351 745.455ZM198.666 752V738.909H201.129V740.989H201.266C201.504 740.284 201.925 739.73 202.527 739.327C203.135 738.918 203.822 738.713 204.589 738.713C204.749 738.713 204.936 738.719 205.152 738.73C205.374 738.741 205.547 738.756 205.672 738.773V741.21C205.57 741.182 205.388 741.151 205.126 741.116C204.865 741.077 204.604 741.057 204.342 741.057C203.74 741.057 203.203 741.185 202.732 741.44C202.266 741.69 201.896 742.04 201.624 742.489C201.351 742.932 201.214 743.437 201.214 744.006V752H198.666ZM207.877 752V738.909H210.425V752H207.877ZM209.164 736.889C208.721 736.889 208.34 736.741 208.022 736.446C207.71 736.145 207.553 735.787 207.553 735.372C207.553 734.952 207.71 734.594 208.022 734.298C208.34 733.997 208.721 733.847 209.164 733.847C209.607 733.847 209.985 733.997 210.298 734.298C210.616 734.594 210.775 734.952 210.775 735.372C210.775 735.787 210.616 736.145 210.298 736.446C209.985 736.741 209.607 736.889 209.164 736.889ZM225.053 738.909L220.305 752H217.578L212.822 738.909H215.558L218.874 748.983H219.01L222.317 738.909H225.053ZM230.882 752.29C230.053 752.29 229.303 752.136 228.632 751.83C227.962 751.517 227.43 751.065 227.038 750.474C226.652 749.884 226.459 749.159 226.459 748.301C226.459 747.562 226.601 746.955 226.885 746.477C227.169 746 227.553 745.622 228.036 745.344C228.518 745.065 229.058 744.855 229.655 744.713C230.251 744.571 230.859 744.463 231.479 744.389C232.263 744.298 232.899 744.224 233.388 744.168C233.876 744.105 234.232 744.006 234.453 743.869C234.675 743.733 234.786 743.511 234.786 743.205V743.145C234.786 742.401 234.575 741.824 234.155 741.415C233.74 741.006 233.121 740.801 232.297 740.801C231.439 740.801 230.763 740.991 230.268 741.372C229.78 741.747 229.442 742.165 229.254 742.625L226.859 742.08C227.143 741.284 227.558 740.642 228.104 740.153C228.655 739.659 229.288 739.301 230.004 739.08C230.72 738.852 231.473 738.739 232.263 738.739C232.786 738.739 233.339 738.801 233.925 738.926C234.516 739.045 235.067 739.267 235.578 739.591C236.095 739.915 236.518 740.378 236.848 740.98C237.178 741.577 237.342 742.352 237.342 743.307V752H234.854V750.21H234.751C234.587 750.54 234.339 750.864 234.01 751.182C233.68 751.5 233.257 751.764 232.74 751.974C232.223 752.185 231.604 752.29 230.882 752.29ZM231.436 750.244C232.141 750.244 232.743 750.105 233.243 749.827C233.749 749.548 234.132 749.185 234.393 748.736C234.661 748.281 234.794 747.795 234.794 747.278V745.591C234.703 745.682 234.527 745.767 234.266 745.847C234.01 745.92 233.717 745.986 233.388 746.043C233.058 746.094 232.737 746.142 232.425 746.188C232.112 746.227 231.851 746.261 231.641 746.29C231.146 746.352 230.695 746.457 230.286 746.605C229.882 746.753 229.558 746.966 229.314 747.244C229.075 747.517 228.956 747.881 228.956 748.335C228.956 748.966 229.189 749.443 229.655 749.767C230.121 750.085 230.714 750.244 231.436 750.244ZM246.251 752.264C244.984 752.264 243.893 751.977 242.978 751.403C242.069 750.824 241.37 750.026 240.881 749.009C240.393 747.991 240.148 746.827 240.148 745.514C240.148 744.185 240.398 743.011 240.898 741.994C241.398 740.972 242.103 740.173 243.012 739.599C243.921 739.026 244.992 738.739 246.225 738.739C247.219 738.739 248.106 738.923 248.884 739.293C249.663 739.656 250.29 740.168 250.768 740.827C251.251 741.486 251.538 742.256 251.629 743.136H249.148C249.012 742.523 248.7 741.994 248.211 741.551C247.728 741.108 247.08 740.886 246.268 740.886C245.558 740.886 244.935 741.074 244.401 741.449C243.873 741.818 243.461 742.347 243.165 743.034C242.87 743.716 242.722 744.523 242.722 745.455C242.722 746.409 242.867 747.233 243.157 747.926C243.447 748.619 243.856 749.156 244.384 749.537C244.918 749.918 245.546 750.108 246.268 750.108C246.751 750.108 247.188 750.02 247.58 749.844C247.978 749.662 248.31 749.403 248.577 749.068C248.85 748.733 249.04 748.33 249.148 747.858H251.629C251.538 748.705 251.262 749.46 250.802 750.125C250.342 750.79 249.725 751.312 248.952 751.693C248.185 752.074 247.285 752.264 246.251 752.264ZM255.964 756.909C255.584 756.909 255.237 756.878 254.925 756.815C254.612 756.759 254.379 756.696 254.226 756.628L254.839 754.54C255.305 754.665 255.72 754.719 256.084 754.702C256.447 754.685 256.768 754.548 257.047 754.293C257.331 754.037 257.581 753.619 257.797 753.04L258.112 752.17L253.322 738.909H256.05L259.365 749.068H259.501L262.817 738.909H265.553L260.158 753.747C259.908 754.429 259.589 755.006 259.203 755.477C258.817 755.955 258.357 756.313 257.822 756.551C257.288 756.79 256.669 756.909 255.964 756.909Z" fill="#ECF3FA"/>
<defs>
<filter id="filter0_d_23_2396" x="31" y="207" width="1042" height="700" filterUnits="userSpaceOnUse" color-interpolation-filters="sRGB">
<feFlood flood-opacity="0" result="BackgroundImageFix"/>
<feColorMatrix in="SourceAlpha" type="matrix" values="0 0 0 0 0 0 0 0 0 0 0 0 0 0 0 0 0 0 127 0" result="hardAlpha"/>
<feMorphology radius="12" operator="dilate" in="SourceAlpha" result="effect1_dropShadow_23_2396"/>
<feOffset dx="12" dy="17"/>
<feGaussianBlur stdDeviation="19.5"/>
<feComposite in2="hardAlpha" operator="out"/>
<feColorMatrix type="matrix" values="0 0 0 0 0.10724 0 0 0 0 0.108599 0 0 0 0 0.120833 0 0 0 0.4 0"/>
<feBlend mode="normal" in2="BackgroundImageFix" result="effect1_dropShadow_23_2396"/>
<feBlend mode="normal" in="SourceGraphic" in2="effect1_dropShadow_23_2396" result="shape"/>
</filter>
</defs>
</svg>
